<svg width="102" height="85" viewBox="0 0 102 85" fill="none" xmlns="http://www.w3.org/2000/svg">
<g filter="url(#filter0_d_441_2006)">
<path d="M65.9378 66.6637L19.2033 46.2348C18.6804 46.0064 18.0355 46.005 17.511 46.2315L11.849 48.6774C10.7261 49.1624 10.7147 50.378 11.8288 50.8745L58.8186 71.8222C59.4003 72.0814 60.1311 72.0554 60.6778 71.7557L66.0845 68.791C67.0711 68.2503 66.9936 67.125 65.9378 66.6637Z" fill="#D1DDFF"/>
</g>
<path d="M13.8098 15.0474V29.9338H17.4481V12.9294L14.0843 14.6474C13.9125 14.7391 13.8098 14.8884 13.8098 15.0474Z" fill="#829DF8"/>
<path d="M63.7361 38.8396L33.8217 25.8197L33.8232 20.3203C33.8341 20.1268 33.6627 19.8921 33.439 19.7955L17.81 12.9922C17.5873 12.8957 17.3976 12.9733 17.3873 13.1671L17.3843 22.605C17.3838 22.6225 17.3907 22.6407 17.3922 22.657L17.3858 46.9524C17.3552 47.5105 17.85 48.1894 18.4919 48.4691L63.6151 68.1084C64.2581 68.3888 64.8344 68.1626 64.8344 67.6044L64.8427 40.3574C64.8739 39.7977 64.3786 39.1188 63.7361 38.8396Z" fill="#3361FF"/>
<path d="M56.1159 17.5255C54.9786 18.0138 54.0582 18.7146 53.4246 19.5372C52.7911 20.3598 52.439 21.3087 52.439 22.2944V43.3327L60.1606 46.6922C60.2851 46.7453 60.4046 46.8144 60.5127 46.8961V19.4399C60.5127 17.7412 58.0703 16.6783 56.1159 17.5255Z" fill="#D1DDFF"/>
<path d="M61.1295 69.9025L64.4365 68.1221C64.6578 68.0028 64.7891 67.8105 64.7891 67.6058V40.218L61.1295 41.9713V69.9025Z" fill="#1E3CA3"/>
<path d="M60.219 40.7869L30.3056 27.7678L30.3071 22.2688C30.3189 22.0753 30.1461 21.8402 29.9229 21.7436L14.2928 14.9411C14.0711 14.8438 13.8815 14.9214 13.8711 15.1152L13.8696 48.9005C13.8375 49.4583 14.3333 50.1375 14.9758 50.4175L60.0985 70.0569C60.7419 70.3369 61.2871 70.1107 61.3177 69.5514L61.3271 42.3044C61.3572 41.7454 60.8619 41.0669 60.219 40.7869Z" fill="url(#paint0_linear_441_2006)"/>
<path d="M56.8039 58.3073L46.4873 53.8169C45.835 53.5332 45.0177 53.8871 45.0177 54.4535L45.0162 59.7984C45.0162 60.0624 45.2044 60.3064 45.5091 60.4379L55.8267 64.8796C56.4785 65.1607 57.2913 64.8068 57.2913 64.2412L57.2923 58.9442C57.2923 58.6824 57.1066 58.4387 56.8039 58.3073Z" fill="white"/>
<path fill-rule="evenodd" clip-rule="evenodd" d="M46.8993 57.0628L49.9589 58.4699V57.6533L46.8993 56.2446V57.0628Z" fill="#009CFF"/>
<path fill-rule="evenodd" clip-rule="evenodd" d="M51.269 59.0733L55.054 60.8151V59.9977L51.269 58.2563V59.0733Z" fill="#009CFF"/>
<path fill-rule="evenodd" clip-rule="evenodd" d="M46.8823 59.161L53.6983 62.2976V61.481L46.8823 58.3443V59.161Z" fill="#009CFF"/>
<path d="M22.0012 3.22002C18.1514 4.33194 17.512 7.48013 17.512 8.06654V39.4935L52.4445 54.6919L52.439 22.2956C52.439 21.3103 52.7911 20.3615 53.4247 19.5385C54.0582 18.7159 54.9787 18.0154 56.1159 17.5267C56.7929 17.2337 57.5347 17.1683 58.2057 17.2827L58.2601 17.2296L24.3517 3.22002C23.1547 2.81671 22.5483 3.06107 22.0012 3.22002Z" fill="#FAFBFF"/>
<path d="M25.8772 9.33665C25.1903 8.97715 24.4836 8.79443 23.7706 8.79443C22.1099 8.79443 20.267 9.94423 19.9529 12.1417C19.9322 12.288 19.9174 12.4343 19.9124 12.5866C19.8226 14.5486 20.9302 16.6424 22.6654 17.796C22.8215 17.8973 22.9805 17.995 23.1474 18.0804C23.8343 18.4422 24.5434 18.6249 25.2564 18.6249C26.9147 18.6249 28.76 17.4751 29.0736 15.2798C29.3916 13.0534 27.9862 10.4437 25.8772 9.33665Z" fill="#F1EFF3"/>
<path d="M30.9175 19.9752L51.2007 28.6747V20.7554L30.9175 12.0558V19.9752Z" fill="#D1DDFF"/>
<path fill-rule="evenodd" clip-rule="evenodd" d="M36.9619 16.0859L40.9524 17.7653V17.2123L36.9619 15.533V16.0859Z" fill="white"/>
<path fill-rule="evenodd" clip-rule="evenodd" d="M42.4675 18.4031L47.8545 20.6701V20.1167L42.4675 17.8498V18.4031Z" fill="#4C4DC3"/>
<path fill-rule="evenodd" clip-rule="evenodd" d="M34.5338 16.5906L39.6571 18.7464V18.1931L34.5338 16.0376V16.5906Z" fill="#4C4DC3"/>
<path fill-rule="evenodd" clip-rule="evenodd" d="M40.6812 19.1776L43.3695 20.3088V19.7555L40.6812 18.6243V19.1776Z" fill="#4C4DC3"/>
<path fill-rule="evenodd" clip-rule="evenodd" d="M44.5244 20.7947L47.8542 22.1963V21.6426L44.5244 20.2418V20.7947Z" fill="white"/>
<path fill-rule="evenodd" clip-rule="evenodd" d="M36.1967 18.6543L42.0197 21.105V20.5521L36.1967 18.1013V18.6543Z" fill="#4C4DC3"/>
<path fill-rule="evenodd" clip-rule="evenodd" d="M42.89 21.4709L44.6287 22.2025V21.6495L42.89 20.9175V21.4709Z" fill="#4C4DC3"/>
<path fill-rule="evenodd" clip-rule="evenodd" d="M34.5338 19.4273L38.4734 21.0852V20.5318L34.5338 18.874V19.4273Z" fill="#4C4DC3"/>
<path fill-rule="evenodd" clip-rule="evenodd" d="M39.2599 21.416L41.331 22.288V21.7342L39.2599 20.863V21.416Z" fill="white"/>
<path fill-rule="evenodd" clip-rule="evenodd" d="M42.2188 22.6612L44.7801 23.7393V23.186L42.2188 22.1078V22.6612Z" fill="#4C4DC3"/>
<path fill-rule="evenodd" clip-rule="evenodd" d="M38.7554 22.571L43.3695 24.5129V23.9596L38.7554 22.0176V22.571Z" fill="#4C4DC3"/>
<path d="M25.8772 19.9237C25.1903 19.5642 24.4836 19.3815 23.7706 19.3815C22.1099 19.3815 20.267 20.5313 19.9529 22.7287C19.9322 22.875 19.9174 23.0214 19.9124 23.1736C19.8226 25.1353 20.9302 27.2295 22.6654 28.383C22.8215 28.4844 22.9805 28.582 23.1474 28.6675C23.8343 29.0292 24.5434 29.2119 25.2564 29.2119C26.9147 29.2119 28.76 28.0621 29.0736 25.8669C29.3916 23.6408 27.9862 21.0308 25.8772 19.9237Z" fill="#F1EFF3"/>
<path d="M30.9175 30.5625L51.2007 39.2621V31.3428L30.9175 22.6432V30.5625Z" fill="#D1DDFF"/>
<path fill-rule="evenodd" clip-rule="evenodd" d="M41.436 34.1844L45.426 35.8634V35.3104L41.436 33.6314V34.1844Z" fill="white"/>
<path fill-rule="evenodd" clip-rule="evenodd" d="M34.5338 31.2804L39.9203 33.5466V32.9936L34.5338 30.7267V31.2804Z" fill="#4C4DC3"/>
<path fill-rule="evenodd" clip-rule="evenodd" d="M42.731 33.2031L47.8543 35.359V34.806L42.731 32.6501V33.2031Z" fill="#4C4DC3"/>
<path fill-rule="evenodd" clip-rule="evenodd" d="M39.0188 31.6411L41.7066 32.772V32.219L39.0188 31.0881V31.6411Z" fill="#4C4DC3"/>
<path fill-rule="evenodd" clip-rule="evenodd" d="M34.5338 29.7536L37.8636 31.1552V30.6018L34.5338 29.2003V29.7536Z" fill="white"/>
<path fill-rule="evenodd" clip-rule="evenodd" d="M40.3674 30.845L46.1909 33.295V32.742L40.3674 30.2916V30.845Z" fill="#4C4DC3"/>
<path fill-rule="evenodd" clip-rule="evenodd" d="M37.7595 29.747L39.4982 30.4786V29.9256L37.7595 29.1936V29.747Z" fill="#4C4DC3"/>
<path fill-rule="evenodd" clip-rule="evenodd" d="M43.9144 30.8647L47.8545 32.5225V31.9696L43.9144 30.3113V30.8647Z" fill="#4C4DC3"/>
<path fill-rule="evenodd" clip-rule="evenodd" d="M41.0572 29.6626L43.1282 30.5338V29.9808L41.0572 29.1092V29.6626Z" fill="white"/>
<path fill-rule="evenodd" clip-rule="evenodd" d="M37.608 28.2107L40.1694 29.2888V28.7358L37.608 27.6577V28.2107Z" fill="#4C4DC3"/>
<path fill-rule="evenodd" clip-rule="evenodd" d="M39.0188 27.4371L43.6334 29.3787V28.8257L39.0188 26.8838V27.4371Z" fill="#4C4DC3"/>
<path d="M25.8772 30.5005C25.1903 30.141 24.4836 29.9583 23.7706 29.9583C22.1099 29.9583 20.267 31.1081 19.9529 33.3056C19.9322 33.4519 19.9174 33.5982 19.9124 33.7501C19.8226 35.7121 20.9302 37.8063 22.6654 38.9598C22.8215 39.0612 22.9805 39.1589 23.1474 39.2443C23.8343 39.606 24.5434 39.7888 25.2564 39.7888C26.9147 39.7888 28.76 38.639 29.0736 36.4434C29.3916 34.2177 27.9862 31.6072 25.8772 30.5005Z" fill="#F1EFF3"/>
<path d="M30.9175 41.1391L51.2007 49.8387V41.9194L30.9175 33.2198V41.1391Z" fill="#D1DDFF"/>
<path fill-rule="evenodd" clip-rule="evenodd" d="M36.9619 37.2504L40.9524 38.9294V38.3764L36.9619 36.697V37.2504Z" fill="white"/>
<path fill-rule="evenodd" clip-rule="evenodd" d="M42.4675 39.567L47.8545 41.8343V41.2806L42.4675 39.014V39.567Z" fill="#4C4DC3"/>
<path fill-rule="evenodd" clip-rule="evenodd" d="M34.5338 37.7546L39.6571 39.9105V39.3575L34.5338 37.2017V37.7546Z" fill="#4C4DC3"/>
<path fill-rule="evenodd" clip-rule="evenodd" d="M40.6812 40.3417L43.3695 41.473V40.92L40.6812 39.7888V40.3417Z" fill="#4C4DC3"/>
<path fill-rule="evenodd" clip-rule="evenodd" d="M44.5244 41.9587L47.8542 43.3603V42.8069L44.5244 41.4053V41.9587Z" fill="white"/>
<path fill-rule="evenodd" clip-rule="evenodd" d="M36.1967 39.8187L42.0197 42.2687V41.7157L36.1967 39.2654V39.8187Z" fill="#4C4DC3"/>
<path fill-rule="evenodd" clip-rule="evenodd" d="M42.89 42.635L44.6287 43.3666V42.8137L42.89 42.082V42.635Z" fill="#4C4DC3"/>
<path fill-rule="evenodd" clip-rule="evenodd" d="M34.5338 40.5914L38.4734 42.2497V41.6959L34.5338 40.0385V40.5914Z" fill="#4C4DC3"/>
<path fill-rule="evenodd" clip-rule="evenodd" d="M39.2599 42.58L41.331 43.4516V42.8986L39.2599 42.027V42.58Z" fill="white"/>
<path fill-rule="evenodd" clip-rule="evenodd" d="M42.2188 43.8253L44.7801 44.9031V44.3501L42.2188 43.2723V43.8253Z" fill="#4C4DC3"/>
<path fill-rule="evenodd" clip-rule="evenodd" d="M38.7554 43.7351L43.3695 45.677V45.1237L38.7554 43.1817V43.7351Z" fill="#4C4DC3"/>
<path d="M22.6253 13.5561C22.6253 13.5561 23.9398 12.9894 24.5887 12.976C25.237 12.963 22.9848 11.1503 22.9848 11.1503C22.9848 11.1503 22.3892 12.7424 22.6253 13.5561Z" fill="#7EC9F9"/>
<path d="M22.2984 13.8579C22.0189 14.2374 21.2634 16.0449 21.1632 16.4323L19.2803 16.3903L18.3223 16.8761C18.3223 16.8761 21.4659 17.66 21.812 17.4658C22.1582 17.2712 23.5394 14.9248 23.6589 14.2738C23.7793 13.6231 23.4613 13.4063 23.2302 13.2195C22.9986 13.0323 22.6406 13.3936 22.2984 13.8579Z" fill="#1074B4"/>
<path d="M22.2858 18.161L21.7396 21.6683C22.1031 21.8997 24.4748 23.1761 27.4125 22.6176L26.5557 18.6349C25.0911 18.9249 23.663 18.7173 22.2858 18.161Z" fill="#26E0BF"/>
<path d="M26.9643 14.1158C26.9643 13.011 25.4148 12.979 25.4148 12.979L24.1689 12.8977C24.1689 12.8977 23.2692 13.0763 22.9887 13.1878C22.9289 13.2111 22.8924 13.3876 22.8114 13.6917C22.5146 14.0765 22.1467 14.6083 22.1403 14.967C22.1319 15.432 22.5324 15.9404 22.5922 16.1298L22.0914 18.8272C22.0914 18.8272 24.6681 20.182 26.9021 19.6163C26.9021 19.6163 26.3673 17.7398 26.4893 17.1077C26.7643 15.6775 26.9643 14.5084 26.9643 14.1158Z" fill="#1074B4"/>
<path d="M26.3125 13.2298C25.956 13.1299 25.6607 13.6936 25.5752 14.2537C25.5051 14.7108 25.7821 16.6929 25.9071 17.0966L23.0968 17.8743L23.2909 18.9249C23.2909 18.9249 26.9599 18.1651 27.2112 17.862C27.4626 17.5593 27.5268 14.8494 27.2655 14.1868C27.0043 13.525 26.669 13.3301 26.3125 13.2298Z" fill="#1074B4"/>
<path d="M25.1198 12.1769L23.8661 12.2913C23.8661 12.2913 24.4201 12.8168 24.0364 13.1254C23.5085 13.5499 23.3446 14.7231 23.3446 14.7231C23.3446 14.7231 26.1682 14.0479 25.5351 13.1254C25.2571 12.7198 25.1198 12.1769 25.1198 12.1769Z" fill="#BABABA"/>
<path d="M23.7604 10.5621C23.4375 10.6189 23.1284 10.9383 23.0706 11.5188C23.0128 12.0992 23.3017 12.6114 23.5328 12.8071C23.7639 13.0028 24.2839 12.8071 24.2839 12.8071L25.0641 12.3726L25.151 12.1553L25.2957 11.3075C25.2962 11.3075 24.2641 10.4733 23.7604 10.5621Z" fill="#BABABA"/>
<path d="M25.3774 10.1224C24.8273 9.85277 24.1438 9.9471 23.8347 10.0749C23.4486 10.2345 23.4969 10.4158 23.4969 10.4158C22.4846 10.4158 22.3582 11.9941 22.4061 12.7191C22.4856 13.9342 22.9715 14.5381 22.9715 14.5381C22.2777 12.9787 22.853 11.1077 23.6846 10.6538C23.6846 10.6538 24.5443 10.8076 24.9744 11.7312C25.1951 12.2047 24.7858 13.9977 24.0624 14.8018C25.9546 14.6584 26.7161 13.4633 26.3694 13.1688C26.1615 12.9917 27.0573 10.9461 25.3774 10.1224Z" fill="white"/>
<path d="M23.5898 17.9322C23.5192 17.9574 23.5191 17.9574 23.4357 18.0343C23.2856 18.1725 22.972 18.2263 22.9211 18.4101C22.8826 18.5494 22.8841 18.604 23.1098 18.6478C23.3804 18.7009 23.8895 18.5212 23.9246 18.3151C23.9596 18.1082 23.9043 18.0417 23.8125 17.9678C23.7552 17.9214 23.6772 17.8999 23.5898 17.9322Z" fill="#FFAA83"/>
<path d="M18.8804 16.3505C18.8147 16.3806 18.8147 16.3806 18.7234 16.4504C18.5589 16.5752 18.2834 16.6647 18.189 16.8069C18.117 16.9142 18.1026 16.954 18.2779 16.9491C18.4878 16.9436 18.9619 16.7311 19.0498 16.5752C19.1382 16.4192 19.111 16.3794 19.0562 16.3408C19.0211 16.3159 18.9624 16.3137 18.8804 16.3505Z" fill="#FFAA83"/>
<path d="M19.3547 28.2936C20.0031 28.5384 20.1878 28.7021 20.2066 28.7278C20.7478 28.2565 21.1181 27.1004 21.5961 26.5058L20.4757 26.1983C20.4757 26.1979 19.7192 27.829 19.3547 28.2936Z" fill="white"/>
<path d="M22.77 22.7759C21.8145 22.7759 20.1 27.2139 19.5375 27.9723C19.9765 28.1194 20.4768 28.5227 20.5005 28.5513C21.1873 27.6752 23.5468 23.3958 23.5937 23.2936C23.2994 23.2595 22.7932 22.7759 22.77 22.7759Z" fill="#8EC2FE"/>
<path d="M23.1297 22.7225C21.9969 22.7794 21.6952 24.3076 21.6952 24.7295C21.6952 25.6193 21.5061 28.5956 21.5061 28.5956C23.5934 29.905 26.7844 29.1771 26.7844 29.1771C26.7844 29.1771 27.4175 24.9048 26.5029 23.3907C26.3701 23.1715 25.8111 22.5877 23.1297 22.7225Z" fill="#8EC2FE"/>
<path d="M24.7376 22.7941C24.7376 22.7941 24.7539 22.982 24.8097 23.0281C24.4576 23.3538 23.4255 23.2491 23.3786 23.0474C23.3727 23.0329 23.5746 22.7399 23.5776 22.702C23.3016 22.7837 23.031 22.913 23.031 22.913C22.87 23.0032 22.8078 23.3155 22.8482 23.3739C22.9505 23.2688 23.3544 23.1763 23.3544 23.1763C23.4714 23.3389 23.4171 23.697 23.4171 23.697C24.0304 23.697 24.6472 23.4522 24.7721 23.3772C25.3247 23.0441 24.8566 22.7388 24.7376 22.7941Z" fill="white"/>
<path d="M23.4173 22.3887C23.4144 22.427 23.561 22.8422 23.3546 23.049C23.4015 23.2507 24.4573 23.3536 24.8094 23.0279C24.6973 22.9272 24.7486 22.4266 24.8133 22.1844C24.717 22.2149 23.685 22.4192 23.4173 22.3887Z" fill="#FFAA83"/>
<path d="M23.9713 20.4073C23.3234 20.3386 22.6795 20.4307 22.483 20.9283C22.4124 21.1066 22.5156 21.3673 22.4227 21.6035C22.2657 22.0042 22.559 22.6207 22.9398 22.9483C22.9975 22.998 23.0736 23.0303 23.157 23.0411C23.6197 23.1028 24.7402 22.5821 24.8202 22.1546C24.8202 22.1546 24.9293 21.5734 24.9308 21.5675C25.0375 21.0019 24.6676 20.4812 23.9713 20.4073Z" fill="#FFAA83"/>
<path d="M22.7304 20.2094C22.1502 20.6488 21.9552 20.1088 21.9552 20.1088C21.9552 20.1088 21.5117 20.8593 22.9936 21.2411C23.3334 21.3284 23.9808 21.3737 24.7101 21.1795C25.0261 21.5501 24.8114 22.1848 24.8114 22.1848C25.5358 21.8179 25.9279 20.8118 25.2666 20.2269C24.603 19.6401 23.3373 19.7504 22.7304 20.2094Z" fill="#4C4DC3"/>
<path d="M26.0531 23.0701C25.6838 23.0582 25.6354 23.6454 25.7786 24.1817C25.8956 24.6199 26.939 26.388 27.2146 26.733L24.9277 28.0826L25.5243 29.0096C25.5243 29.0096 28.6115 27.4836 28.7231 27.1468C28.8347 26.8107 27.8175 24.2927 27.3133 23.7401C26.8096 23.1875 26.422 23.0824 26.0531 23.0701Z" fill="#8EC2FE"/>
<path d="M19.3547 38.8698C20.0031 39.1145 20.1878 39.2783 20.2066 39.3039C20.7478 38.8327 21.1181 37.6766 21.5961 37.082L20.4757 36.7745C20.4757 36.7741 19.7192 38.4052 19.3547 38.8698Z" fill="white"/>
<path d="M22.77 33.3527C21.8145 33.3527 20.1 37.7907 19.5375 38.549C19.9765 38.6957 20.4768 39.0994 20.5005 39.128C21.1873 38.2519 23.5468 33.9725 23.5937 33.8704C23.2994 33.8358 22.7932 33.3527 22.77 33.3527Z" fill="#009CFF"/>
<path d="M23.1297 33.2989C21.9969 33.3557 21.6952 34.8839 21.6952 35.3058C21.6952 36.1956 21.5061 39.1719 21.5061 39.1719C23.5934 40.4814 26.7844 39.7535 26.7844 39.7535C26.7844 39.7535 27.4175 35.4811 26.5029 33.967C26.3701 33.7479 25.8111 33.1644 23.1297 33.2989Z" fill="#009CFF"/>
<path d="M26.0531 33.6468C25.6838 33.635 25.6354 34.2221 25.7786 34.7584C25.8956 35.1962 26.939 36.9648 27.2146 37.3094L24.9277 38.6594L25.5243 39.5863C25.5243 39.5863 28.6115 38.0603 28.7231 37.7235C28.8347 37.3874 27.8175 34.8694 27.3133 34.3168C26.8096 33.7638 26.422 33.6591 26.0531 33.6468Z" fill="#009CFF"/>
<path d="M23.4667 32.9551C23.4637 32.9933 23.6108 33.4111 23.4039 33.6191C23.4513 33.8219 24.5135 33.9255 24.8671 33.5979C24.7545 33.4969 24.7604 32.9484 24.9293 32.7066C24.832 32.7371 23.7358 32.9855 23.4667 32.9551Z" fill="#FFAA83"/>
<path d="M24.0242 30.9622C23.3724 30.8931 22.725 30.9859 22.5274 31.4866C22.4563 31.6656 22.56 31.9278 22.4672 32.1654C22.3092 32.5688 22.6045 33.1886 22.9872 33.5184C23.045 33.5685 23.122 33.6008 23.2059 33.6116C23.6711 33.6736 24.798 33.15 24.879 32.7203C24.879 32.7203 24.9891 32.1354 24.9901 32.1294C25.0962 31.5601 24.7244 31.0368 24.0242 30.9622Z" fill="#FFAA83"/>
<path d="M22.4023 31.2685C22.0196 31.9693 22.8888 31.3714 22.8888 31.3714C22.8888 31.3714 23.5549 32.3986 24.7613 31.758C25.0793 32.1309 24.8635 32.7696 24.8635 32.7696C25.5919 32.4005 26.0432 31.3495 25.3213 30.7998C24.2517 29.9861 22.8078 30.5272 22.4023 31.2685Z" fill="#713D24"/>
<path d="M25.0428 31.865C24.9367 31.8476 24.8448 31.8609 24.8058 31.9044C24.9796 32.1231 24.8196 32.4823 24.8601 32.6446C25.027 32.626 25.2206 32.3352 25.2398 32.2126C25.2601 32.0827 25.2127 31.8925 25.0428 31.865Z" fill="#FFAA83"/>
<g filter="url(#filter1_d_441_2006)">
<path d="M65.1867 15.0822C65.1721 20.108 74.7229 31.4956 74.7229 31.4956C74.7229 31.4956 77.7612 30.178 79.2234 28.9917C80.3608 28.0688 81.0468 26.4424 81.0538 24.2432C81.0685 19.2159 77.5209 13.0715 73.1454 10.5446C68.7707 8.01908 65.2007 10.0535 65.1867 15.0822Z" fill="url(#paint1_linear_441_2006)"/>
<path d="M64.138 14.4779C64.122 20.1661 68.1384 27.123 73.0895 29.981C78.042 32.8398 82.0842 30.5365 82.1003 24.8476C82.1157 19.1566 78.1007 12.2004 73.1475 9.34166C68.1963 6.4829 64.1548 8.78626 64.138 14.4779ZM65.186 15.0822C65.2 10.0536 68.7706 8.01917 73.1454 10.544C77.5209 13.0709 81.0678 19.2153 81.0538 24.2426C81.0391 29.2692 77.4685 31.3056 73.093 28.7801C68.7182 26.2546 65.1713 20.1081 65.186 15.0822Z" fill="url(#paint2_linear_441_2006)"/>
<path d="M85.2166 25.7821C85.2096 25.6263 85.1991 25.4705 85.1879 25.314C85.1816 25.2337 85.1746 25.154 85.1677 25.073C85.1537 24.9179 85.1383 24.7628 85.1202 24.6077C85.1125 24.5337 85.1048 24.4582 85.0957 24.3835C85.0817 24.2752 85.065 24.1655 85.0496 24.0572C85.0265 23.8944 85.0035 23.7317 84.9762 23.5682C84.9588 23.4585 84.9378 23.3488 84.9175 23.2384C84.8889 23.0805 84.8589 22.9219 84.8267 22.7641C84.8009 22.6383 84.7743 22.5119 84.7464 22.3854C84.7226 22.2785 84.6989 22.173 84.673 22.0668C84.6409 21.9278 84.6053 21.7895 84.5689 21.6505C84.5424 21.5464 84.5158 21.4423 84.4879 21.3382C84.4425 21.1705 84.3943 21.0035 84.3447 20.8359C84.3272 20.7737 84.309 20.7115 84.2909 20.6486C84.2203 20.4188 84.1484 20.1903 84.0715 19.9619C83.9597 19.6245 83.8375 19.2877 83.7096 18.9524C83.6782 18.8685 83.6454 18.784 83.6118 18.6995C83.5008 18.4151 83.3862 18.1322 83.2646 17.8506C83.2471 17.8073 83.229 17.7633 83.2108 17.7207C83.0753 17.4091 82.9321 17.0982 82.784 16.7894C82.7455 16.7077 82.7057 16.6274 82.6666 16.5463C82.5464 16.3018 82.4235 16.0594 82.2977 15.8177C82.2579 15.7429 82.2195 15.6682 82.1796 15.5934C82.0176 15.2895 81.8499 14.9898 81.6766 14.6922C81.6445 14.6363 81.611 14.5811 81.5774 14.5252C81.4244 14.2653 81.2679 14.0089 81.108 13.7553C81.0605 13.6806 81.0136 13.6058 80.9661 13.5325C80.767 13.223 80.563 12.917 80.3528 12.6166C80.3206 12.5712 80.2878 12.5271 80.2563 12.4824C80.037 12.1715 79.8113 11.867 79.5815 11.5672C79.5458 11.5211 79.5109 11.4736 79.476 11.4282C79.404 11.336 79.3307 11.2459 79.258 11.1551C79.1658 11.0405 79.0736 10.9245 78.9793 10.8099C78.9045 10.7191 78.8277 10.629 78.7501 10.5389C78.66 10.4334 78.5699 10.3265 78.4783 10.2217C78.2918 10.0086 78.1025 9.79763 77.9104 9.59294C77.8992 9.58106 77.888 9.56849 77.8768 9.55662C77.6742 9.34074 77.4682 9.12905 77.2586 8.92296C77.1272 8.79162 76.9931 8.66377 76.8596 8.53662C76.8219 8.5003 76.7842 8.46326 76.7458 8.42763C76.5697 8.26276 76.3916 8.10138 76.2113 7.94489C76.1631 7.90158 76.1128 7.86036 76.0639 7.81844C75.9312 7.70387 75.7991 7.59209 75.6657 7.48171C75.5979 7.42791 75.5309 7.37481 75.4638 7.32102C75.345 7.22531 75.2256 7.1317 75.1054 7.04018C75.0335 6.98568 74.9622 6.93259 74.8895 6.8781C74.7708 6.79077 74.6506 6.70344 74.5305 6.61821C74.4592 6.56791 74.3879 6.5176 74.3167 6.4687C74.1874 6.37997 74.0568 6.29405 73.9254 6.20882C73.8632 6.1683 73.8025 6.12638 73.7396 6.08795C73.5475 5.96639 73.3533 5.84833 73.1576 5.73515C72.9704 5.62687 72.7846 5.52626 72.5995 5.42916C72.5513 5.40401 72.5023 5.37885 72.4541 5.3544C72.2886 5.26986 72.123 5.18812 71.9595 5.11197C71.9392 5.10219 71.9183 5.09242 71.8987 5.08334C71.7283 5.0051 71.5592 4.93383 71.3908 4.86467C71.2113 4.79201 71.0331 4.72495 70.8564 4.66137C70.8124 4.646 70.767 4.62714 70.7223 4.61177C70.5022 4.53632 70.2849 4.46925 70.069 4.40987C69.9412 4.37563 69.8168 4.34559 69.6904 4.31625C69.6324 4.30298 69.573 4.28621 69.515 4.27363C69.3306 4.23311 69.1483 4.19958 68.9673 4.17163C68.9596 4.17024 68.9526 4.16954 68.9457 4.16814C68.7808 4.14369 68.6173 4.12413 68.4566 4.10945C68.4028 4.10456 68.349 4.10177 68.2945 4.09758C68.1779 4.0892 68.0619 4.08221 67.9459 4.07941C67.8949 4.07802 67.8439 4.07732 67.7922 4.07662C67.6721 4.07522 67.5533 4.07732 67.4345 4.08221C67.3933 4.08291 67.3521 4.08361 67.3116 4.08641C67.1593 4.09479 67.0077 4.10876 66.8596 4.12622C66.8274 4.12972 66.7967 4.1353 66.7653 4.13949C66.6437 4.15626 66.5242 4.17583 66.4055 4.19888C66.365 4.20657 66.3251 4.21495 66.286 4.22334C66.1491 4.25198 66.0149 4.28411 65.8836 4.32184C65.8745 4.32463 65.8668 4.32603 65.8578 4.32883C65.7187 4.36795 65.5832 4.41546 65.449 4.46436C65.4127 4.47764 65.3764 4.4923 65.3408 4.50628C65.2318 4.54889 65.1256 4.5936 65.0208 4.6425C64.9922 4.65578 64.9649 4.66765 64.9377 4.68023C64.8007 4.7459 64.6673 4.81507 64.5374 4.89192L64.5388 4.89121H64.5381L71.5487 0.816851C71.5704 0.803578 71.5927 0.791008 71.6151 0.778432C71.7248 0.716255 71.8366 0.659661 71.9497 0.60447C71.977 0.591895 72.0049 0.580018 72.0329 0.566744C72.0964 0.5381 72.1593 0.507366 72.2243 0.48012C72.2669 0.461955 72.3109 0.447285 72.3535 0.430518C72.3892 0.415847 72.4255 0.401876 72.4611 0.388602C72.5939 0.339699 72.7273 0.294283 72.8649 0.253763L72.8712 0.252366C72.8789 0.250969 72.888 0.248172 72.8964 0.246077C73.0277 0.20905 73.1625 0.175517 73.2981 0.146873C73.3393 0.137791 73.3784 0.130803 73.4196 0.122419C73.4615 0.114734 73.5035 0.104263 73.5461 0.0979755C73.6222 0.0840031 73.7012 0.0742202 73.7787 0.0630423C73.8102 0.0595492 73.8409 0.0539622 73.8723 0.0497704C74.0058 0.0344007 74.1413 0.0204228 74.2776 0.0113407C74.2936 0.0106421 74.3097 0.0106428 74.3257 0.00994421C74.3663 0.00784835 74.4082 0.00715203 74.4487 0.00575478C74.5668 0.000864431 74.6855 -0.000529742 74.8064 0.000168879C74.8574 0.000168879 74.9084 0.00155964 74.9601 0.00225826C75.0013 0.00365551 75.0397 0.00296106 75.0803 0.00435831C75.155 0.00785142 75.2333 0.0155377 75.3087 0.0211267C75.3625 0.0246198 75.4156 0.0274131 75.4701 0.0330021C75.6315 0.0476731 75.795 0.0679329 75.9605 0.091686C75.9668 0.0930833 75.9745 0.0937804 75.9815 0.094479H75.9836C76.1638 0.122424 76.3455 0.156659 76.5292 0.195782C76.5879 0.209056 76.6487 0.225116 76.7074 0.239787C76.8212 0.266335 76.9344 0.291487 77.0497 0.322925C77.0609 0.32572 77.072 0.329917 77.0832 0.332711C77.2984 0.392094 77.5178 0.459163 77.7371 0.534614C77.7811 0.549285 77.8259 0.567444 77.8699 0.583512C78.0473 0.646388 78.2241 0.713461 78.405 0.787515C78.4288 0.797296 78.4518 0.804277 78.4756 0.815455C78.6209 0.874838 78.7662 0.939108 78.9122 1.00618C78.9324 1.01526 78.9527 1.02574 78.9737 1.03552C79.1372 1.11097 79.3027 1.19271 79.4683 1.27794C79.5165 1.3024 79.5647 1.32754 79.6136 1.35269C79.7987 1.4498 79.9853 1.55041 80.1725 1.65869C80.3674 1.77117 80.5602 1.88924 80.7538 2.0108C80.8166 2.04992 80.8781 2.09114 80.9403 2.13166C81.0702 2.21619 81.2009 2.30352 81.3315 2.39225C81.4028 2.44115 81.474 2.49145 81.5446 2.54245C81.6648 2.62698 81.7842 2.71361 81.903 2.80164C81.9757 2.85613 82.0476 2.90923 82.1189 2.96442C82.2397 3.05594 82.3592 3.15025 82.478 3.24457C82.545 3.29836 82.6121 3.35146 82.6785 3.40595C82.8126 3.51633 82.9453 3.6295 83.0788 3.74337C83.127 3.78529 83.1766 3.82581 83.2248 3.86843C83.405 4.02562 83.5832 4.1877 83.7592 4.35188C83.7963 4.38681 83.8326 4.42244 83.8689 4.45668C83.987 4.56845 84.105 4.68024 84.221 4.79411C84.2385 4.81158 84.2546 4.82973 84.2727 4.8472C84.4809 5.05329 84.687 5.26498 84.8903 5.48015C84.9015 5.49203 84.9127 5.50461 84.9231 5.51648C85.1153 5.72188 85.3039 5.93146 85.4911 6.14524C85.5086 6.1655 85.5275 6.18506 85.5456 6.20463C85.619 6.29056 85.6909 6.37858 85.7643 6.46382C85.8397 6.55324 85.9166 6.64336 85.9927 6.73418C86.0863 6.84805 86.1793 6.96403 86.2715 7.0807C86.3434 7.17082 86.4168 7.26024 86.4887 7.35245C86.502 7.36992 86.5167 7.386 86.5293 7.40346C86.5516 7.43281 86.5726 7.46215 86.5949 7.49079C86.8248 7.7905 87.049 8.09509 87.2684 8.40528C87.2901 8.43602 87.3138 8.46536 87.3362 8.4968C87.3467 8.51147 87.3557 8.52614 87.3662 8.54081C87.5758 8.84122 87.7798 9.14652 87.9789 9.45671C87.9985 9.48605 88.0187 9.514 88.0376 9.54404C88.0669 9.58805 88.0928 9.63555 88.1207 9.67887C88.2807 9.93316 88.4379 10.1896 88.5902 10.4488C88.614 10.4893 88.6405 10.5284 88.6643 10.5689C88.6726 10.5836 88.681 10.6004 88.6908 10.6157C88.8634 10.9133 89.0303 11.2137 89.1924 11.5169C89.2057 11.5421 89.2204 11.5658 89.2336 11.5903C89.2602 11.6399 89.2839 11.6909 89.3098 11.7398C89.4362 11.9822 89.5592 12.2253 89.6794 12.4706C89.7038 12.5202 89.7311 12.5705 89.7548 12.6201C89.7695 12.6508 89.7828 12.6815 89.7974 12.7116C89.9448 13.0211 90.088 13.3306 90.2236 13.6435C90.2285 13.6526 90.232 13.6631 90.2375 13.6722C90.2515 13.7064 90.2641 13.7414 90.2788 13.7742C90.3996 14.055 90.5149 14.3387 90.626 14.6223C90.6434 14.6677 90.6644 14.7131 90.6826 14.7592C90.6973 14.797 90.7098 14.8361 90.7245 14.8745C90.8517 15.2106 90.9732 15.5459 91.0864 15.8833C91.0885 15.8903 91.0906 15.8966 91.0934 15.9029C91.1674 16.1258 91.2373 16.3479 91.3051 16.5708C91.3246 16.633 91.3407 16.6944 91.3595 16.7566C91.3966 16.8845 91.435 17.0116 91.4706 17.1381C91.4825 17.1786 91.4909 17.2198 91.5021 17.2603C91.5307 17.3644 91.5565 17.4685 91.5838 17.5726C91.6194 17.7116 91.6544 17.85 91.6865 17.9897C91.7116 18.0959 91.7368 18.2014 91.7592 18.3068C91.7759 18.3802 91.7948 18.455 91.8102 18.529C91.822 18.5814 91.8297 18.6331 91.8402 18.6862C91.873 18.8448 91.9031 19.0027 91.9317 19.1627C91.952 19.2717 91.9722 19.3813 91.9897 19.4903C92.0163 19.6538 92.04 19.8159 92.0638 19.9801C92.0742 20.0562 92.0889 20.1337 92.0987 20.2099C92.1022 20.242 92.1057 20.2742 92.1092 20.307C92.1189 20.3818 92.1266 20.4558 92.1357 20.5306C92.1525 20.6864 92.1686 20.8407 92.1825 20.9951C92.1895 21.0762 92.1965 21.1565 92.2021 21.2362C92.214 21.3927 92.2223 21.5492 92.23 21.7035C92.2335 21.7755 92.2384 21.8461 92.2405 21.9159C92.2489 22.1388 92.2545 22.3609 92.2538 22.581C92.2447 25.8415 91.2247 28.2259 89.6172 29.7049L80.6518 38.3964L73.0556 43.0478L81.7004 33.6437C83.3086 32.164 85.2326 29.9158 85.2417 26.6561C85.2424 26.4353 85.2375 26.2125 85.2291 25.9903C85.2243 25.9225 85.2201 25.8527 85.2166 25.7821Z" fill="url(#paint3_linear_441_2006)"/>
<path d="M61.0001 12.6647C60.9917 15.9259 61.9942 19.4763 63.5885 22.8059C66.0064 27.8507 72.6999 42.2912 73.052 43.0513C73.4076 42.7006 80.1633 36.0253 82.6007 33.7827C84.2097 32.303 85.229 29.9193 85.238 26.6595C85.2604 18.9677 79.851 9.5992 73.1575 5.73512C66.4661 1.87174 61.0224 4.97362 61.0001 12.6647ZM64.1383 14.4777C64.155 8.7867 68.1966 6.48264 73.1477 9.3414C78.1009 12.2002 82.1159 19.1563 82.1005 24.8473C82.0845 30.5362 78.0422 32.8388 73.0897 29.9808C68.1386 27.122 64.1222 20.1659 64.1383 14.4777Z" fill="url(#paint4_linear_441_2006)"/>
<path d="M63.5549 16.7122C63.5409 21.7381 67.0871 27.8846 71.4611 30.4101C75.8373 32.937 79.408 30.8998 79.422 25.8732C79.4366 20.8453 75.8883 14.7009 71.5128 12.1754C67.1395 9.64914 63.5688 11.6842 63.5549 16.7122Z" fill="url(#paint5_linear_441_2006)"/>
</g>
<defs>
<filter id="filter0_d_441_2006" x="0" y="45.0626" width="69.7794" height="39.9374" filterUnits="userSpaceOnUse" color-interpolation-filters="sRGB">
<feFlood flood-opacity="0" result="BackgroundImageFix"/>
<feColorMatrix in="SourceAlpha" type="matrix" values="0 0 0 0 0 0 0 0 0 0 0 0 0 0 0 0 0 0 127 0" result="hardAlpha"/>
<feOffset dx="-4" dy="6"/>
<feGaussianBlur stdDeviation="3.5"/>
<feComposite in2="hardAlpha" operator="out"/>
<feColorMatrix type="matrix" values="0 0 0 0 0 0 0 0 0 0 0 0 0 0 0 0 0 0 0.33 0"/>
<feBlend mode="normal" in2="BackgroundImageFix" result="effect1_dropShadow_441_2006"/>
<feBlend mode="normal" in="SourceGraphic" in2="effect1_dropShadow_441_2006" result="shape"/>
</filter>
<filter id="filter1_d_441_2006" x="56" y="0" width="45.2538" height="63.0513" filterUnits="userSpaceOnUse" color-interpolation-filters="sRGB">
<feFlood flood-opacity="0" result="BackgroundImageFix"/>
<feColorMatrix in="SourceAlpha" type="matrix" values="0 0 0 0 0 0 0 0 0 0 0 0 0 0 0 0 0 0 127 0" result="hardAlpha"/>
<feOffset dx="2" dy="13"/>
<feGaussianBlur stdDeviation="3.5"/>
<feComposite in2="hardAlpha" operator="out"/>
<feColorMatrix type="matrix" values="0 0 0 0 0 0 0 0 0 0 0 0 0 0 0 0 0 0 0.2 0"/>
<feBlend mode="normal" in2="BackgroundImageFix" result="effect1_dropShadow_441_2006"/>
<feBlend mode="normal" in="SourceGraphic" in2="effect1_dropShadow_441_2006" result="shape"/>
</filter>
<linearGradient id="paint0_linear_441_2006" x1="9.16044" y1="13.3047" x2="41.5484" y2="79.8377" gradientUnits="userSpaceOnUse">
<stop stop-color="#1E3CA3"/>
<stop offset="1" stop-color="#009CFF"/>
<stop offset="1" stop-color="#009CFF"/>
</linearGradient>
<linearGradient id="paint1_linear_441_2006" x1="65.1864" y1="20.4776" x2="81.0538" y2="20.4776" gradientUnits="userSpaceOnUse">
<stop stop-color="#B9C3D7"/>
<stop offset="1" stop-color="#D9DFEC"/>
</linearGradient>
<linearGradient id="paint2_linear_441_2006" x1="64.1381" y1="19.6614" x2="82.1004" y2="19.6614" gradientUnits="userSpaceOnUse">
<stop stop-color="#122386"/>
<stop offset="1" stop-color="#0482E5"/>
</linearGradient>
<linearGradient id="paint3_linear_441_2006" x1="64.5373" y1="21.5264" x2="92.2513" y2="21.5264" gradientUnits="userSpaceOnUse">
<stop stop-color="#122386"/>
<stop offset="1" stop-color="#0482E5"/>
</linearGradient>
<linearGradient id="paint4_linear_441_2006" x1="61" y1="23.5622" x2="85.2386" y2="23.5622" gradientUnits="userSpaceOnUse">
<stop stop-color="#0D71D6"/>
<stop offset="1" stop-color="#009CFF"/>
</linearGradient>
<linearGradient id="paint5_linear_441_2006" x1="63.555" y1="21.2927" x2="79.4224" y2="21.2927" gradientUnits="userSpaceOnUse">
<stop stop-color="#C5CEE5"/>
<stop offset="1" stop-color="#FFFFFA"/>
</linearGradient>
</defs>
</svg>
