<svg width="164" height="88" viewBox="0 0 164 88" fill="none" xmlns="http://www.w3.org/2000/svg">
<path d="M15.1166 25.0053L4.44432 26.4053C2.94224 26.6023 1.88367 27.9848 2.07987 29.493C2.25371 30.8292 3.36515 31.843 4.70656 31.8889L21.392 32.4576L15.1166 25.0053Z" fill="#FFCEBD"/>
<path d="M6.36957 26.1749L6.3945 26.1713L6.39454 26.1718L6.36957 26.1749" fill="url(#paint0_linear_441_1794)"/>
<path d="M15.5964 32.2462L14.2977 32.2017C13.05 30.8859 11.2841 30.108 9.50591 29.6866C8.79999 29.5192 8.01672 29.3604 7.5767 28.7814C7.38479 28.5291 7.28148 28.2225 7.17106 27.9249C6.94737 27.3225 6.68079 26.7367 6.37646 26.171L6.40063 26.168L15.3589 31.3555L15.4382 31.6531L15.5964 32.2462" fill="#DBB2A1"/>
<path d="M41.2955 11.9136L54.2272 13.709L62.0029 17.0624C65.041 18.3724 67.7651 20.3163 69.9957 22.7643L72.6517 25.6803C73.7719 26.9097 74.7288 28.2789 75.5004 29.7538L77.9798 34.4962L81.2614 36.3968L70.847 54.1163L68.116 52.4907L54.0477 51.1561L47.3599 51.0881C45.9032 51.0735 44.465 50.762 43.1317 50.1732L38.0944 47.9473C36.2914 46.7309 37.9071 41.9244 37.9071 41.9244L52.905 23.1173C53.5456 22.3132 53.3402 21.1284 52.467 20.5889L51.2163 19.8165C50.6565 19.4708 49.9951 19.3283 49.3429 19.4126L48.5557 19.5144L40.8399 15.1483C40.0598 14.7065 39.6572 13.8062 39.8474 12.9285C39.9915 12.2621 40.6228 11.8203 41.2955 11.9136Z" fill="#E7CBC2"/>
<path d="M46.9431 48.4241C46.1269 48.4241 45.3086 48.2863 44.535 48.0205C44.7101 48.0471 44.8897 48.0604 45.0693 48.0604C45.6051 48.0604 46.1414 47.9427 46.5483 47.707L68.3201 35.1359C68.5679 34.9926 68.7841 34.8081 68.9622 34.5938C68.9155 34.987 68.8122 35.3733 68.6532 35.7349C68.1756 36.8226 67.261 37.6553 66.2953 38.3438C61.6663 41.6467 55.3823 42.4015 51.4216 46.487C51.1291 46.7887 50.8491 47.1061 50.5256 47.3761C50.1754 47.6689 49.7966 47.8298 49.3747 47.9893C48.5976 48.2825 47.7714 48.4241 46.9431 48.4241V48.4241ZM64.6317 28.6862L56.2808 23.8497C56.3545 23.2664 56.2 22.8124 55.8278 22.5039C56.5989 22.6116 57.374 22.7188 58.0898 22.9921C59.7389 23.6197 60.9188 25.0534 62.1745 26.2961C62.9847 27.0979 63.8511 27.8532 64.6317 28.6862ZM53.2793 22.0822C53.2808 22.0132 53.2783 21.9438 53.2707 21.8753C53.4032 21.9397 53.5381 21.9966 53.6751 22.0475C53.5477 22.0555 53.4157 22.0666 53.2793 22.0822Z" fill="#DBB2A1"/>
<path d="M51.3696 19.9312L51.258 19.8614L51.2222 19.839C51.2171 19.836 51.2124 19.833 51.2073 19.83C51.2056 19.8291 51.2034 19.8278 51.2017 19.8265C51.2013 19.8261 51.2009 19.8261 51.2 19.8257C51.2 19.8257 51.2 19.8257 51.1996 19.8252C50.8101 19.588 50.3724 19.4489 49.9237 19.4161C49.8406 19.3111 49.7289 19.2318 49.6045 19.1884C49.8951 19.1952 50.1862 19.1991 50.4645 19.2788C50.8288 19.3821 51.1502 19.6203 51.3696 19.9312V19.9312ZM48.6729 19.4588L40.1639 14.4947C39.9845 14.2248 39.8699 13.9139 39.8315 13.5887C40.0514 13.7774 40.3012 13.9401 40.5475 14.0844C42.6829 15.3344 45.1388 16.0863 46.97 17.7579C47.5543 18.291 48.1087 18.9356 48.8745 19.1177C48.9857 19.1444 49.0982 19.1599 49.2116 19.1703C49.1485 19.1862 49.0859 19.212 49.0249 19.2482L48.6729 19.4588" fill="#DBB2A1"/>
<path d="M69.5138 33.0636V32.249L26.1766 6.71188C25.363 6.24118 24.4058 5.95339 23.5924 6.4246L0.840033 19.5282C0.622855 19.6534 0.448204 19.8413 0.338706 20.0673L0.211734 20.3298C-0.270451 21.3249 0.0965784 22.5252 1.05206 23.0785L43.5894 47.7065C44.4031 48.1777 45.7344 48.1777 46.5481 47.7065L68.3194 35.1355C69.0583 34.7089 69.5138 33.919 69.5138 33.0636Z" fill="#DEECFC"/>
<path d="M1.632 22.3384L44.1693 46.9664C44.983 47.4375 46.3143 47.4375 47.128 46.9664L68.8993 34.3954C69.6382 33.9683 70.0938 33.1784 70.0938 32.3235V32.9615C70.0938 33.8168 69.6382 34.6067 68.8993 35.0333L47.128 47.6044C46.3143 48.0755 44.983 48.0755 44.1693 47.6044L1.632 22.9763C0.863649 22.531 0.476265 21.6681 0.604602 20.8295C0.698342 21.4421 1.05931 22.0065 1.632 22.3384" fill="#B6D5F9"/>
<path d="M45.0684 45.9863C45.5965 45.9863 46.0883 45.8699 46.4536 45.6581L68.8088 32.7102C69.1414 32.5176 69.3248 32.2716 69.3243 32.0174C69.3243 31.7633 69.1414 31.5172 68.8088 31.3247L26.2025 6.64725C25.8374 6.43595 25.3456 6.31917 24.8177 6.31917C24.2898 6.31917 23.798 6.43595 23.4327 6.64725L1.07765 19.5954C0.744876 19.788 0.561707 20.0337 0.561707 20.288C0.561707 20.5422 0.744977 20.7884 1.0776 20.981L43.6837 45.6581C44.0485 45.8699 44.5408 45.9863 45.0684 45.9863Z" fill="#315582"/>
<path d="M14.8992 29.666L16.2464 34.698C16.5367 35.7822 17.2883 36.6844 18.3025 37.1659L25.6423 40.6497L28.1877 37.239L22.0047 34.2246L20.6086 31.309C19.8815 29.4216 18.0667 28.1763 16.0432 28.1763H16.0432C15.2647 28.1763 14.698 28.9141 14.8992 29.666" fill="#FFCEBD"/>
<path d="M24.4471 40.0682L23.3775 39.5626C23.1952 39.3256 23.0435 39.0655 22.933 38.7875C22.753 38.3349 22.6752 37.8489 22.5429 37.3801C22.4708 37.1247 22.3806 36.8724 22.2526 36.6388C22.1894 36.5235 22.1169 36.4133 22.0333 36.3117C21.9354 36.1925 21.8115 36.1152 21.7124 35.9999C21.3305 35.5571 21.0565 34.9546 21.1912 34.3948C21.4735 34.367 21.7762 34.323 22.0976 34.2624L22.149 34.2876L22.7986 36.371L23.5241 38.6983C23.6923 39.238 24.0148 39.7129 24.4471 40.0682V40.0682ZM19.0257 30.8052C18.5387 29.7535 17.7356 28.8516 16.7551 28.229C16.7965 28.235 16.8377 28.2423 16.8789 28.2495C16.8947 28.2521 16.9105 28.2546 16.9263 28.2576C16.9642 28.2645 17.0019 28.2726 17.0396 28.2803C17.0583 28.2841 17.0771 28.288 17.0957 28.2922C17.1321 28.3003 17.1684 28.3089 17.2045 28.3178C17.2239 28.3225 17.2432 28.3272 17.2624 28.3324C17.2982 28.3413 17.334 28.3511 17.3695 28.361C17.3883 28.3665 17.4072 28.3721 17.426 28.3776C17.4618 28.3883 17.4977 28.399 17.5332 28.4105C17.5503 28.4161 17.5672 28.4216 17.5841 28.4272C17.6213 28.4395 17.6584 28.4519 17.6952 28.4652C17.7044 28.4686 17.7135 28.4724 17.7227 28.4758C17.8514 28.5228 17.9777 28.5753 18.1015 28.633C18.1181 28.6402 18.1348 28.6479 18.1514 28.6556C18.1831 28.671 18.2144 28.6868 18.2458 28.7026C18.2654 28.7124 18.285 28.7222 18.3045 28.7325C18.3344 28.7479 18.364 28.7641 18.3935 28.7803C18.4139 28.7914 18.4343 28.8025 18.4546 28.814C18.4832 28.8303 18.5117 28.8469 18.54 28.8636C18.5607 28.876 18.5813 28.8883 18.6018 28.9007C18.6294 28.9178 18.657 28.9349 18.6843 28.9524C18.705 28.9656 18.7254 28.9793 18.7458 28.993C18.7725 29.0105 18.7993 29.028 18.8257 29.0463C18.8463 29.0604 18.8667 29.0754 18.8871 29.0899C18.9226 29.1151 18.958 29.1407 18.9928 29.1672C19.0257 29.192 19.0587 29.2167 19.0909 29.2423C19.1131 29.2603 19.1347 29.2786 19.1566 29.2966C19.1789 29.3149 19.2013 29.3329 19.2233 29.3517C19.2448 29.37 19.2659 29.3888 19.2871 29.4076C19.3089 29.4268 19.3307 29.446 19.3522 29.4657C19.3728 29.4845 19.3931 29.5037 19.4134 29.5229C19.4349 29.5434 19.4563 29.5639 19.4775 29.5848C19.497 29.604 19.5165 29.6232 19.5357 29.6429C19.5571 29.6647 19.5782 29.6864 19.5992 29.7087C19.6176 29.7283 19.636 29.7475 19.6541 29.7672C19.6713 29.7859 19.6882 29.8052 19.7051 29.8239C19.4417 30.1677 19.2156 30.4948 19.0257 30.8052" fill="#DBB2A1"/>
<path d="M21.5373 32.2602L23.52 38.6926C23.7346 39.3889 24.202 39.978 24.829 40.3422L31.8134 44.4023L32.7186 40.1888L28.3523 37.3353L27.2224 33.908C26.4983 32.0151 24.6913 30.7661 22.6764 30.7661H22.6764C21.9012 30.7661 21.3369 31.5061 21.5373 32.2602" fill="#FFCEBD"/>
<path d="M31.1916 44.0321L30.876 43.8735C30.876 43.8735 30.876 43.8735 30.8755 43.8735L31.1916 44.0321Z" fill="#DBCFC9"/>
<path d="M31.1915 44.0321L30.9032 43.8646C30.5895 43.6279 30.2995 43.3648 30.0809 43.0396C29.8551 42.7034 29.7183 42.318 29.6195 41.9271C29.4714 41.341 29.4063 40.736 29.2381 40.1545C29.157 39.8747 29.051 39.6 28.8991 39.3505C28.8303 39.2373 28.7576 39.1253 28.6874 39.0143C28.5832 38.8489 28.41 38.7289 28.2862 38.5772C28.0729 38.3162 27.9097 38.015 27.8533 37.6787C27.8313 37.548 27.8259 37.4134 27.7839 37.2878C27.7461 37.1746 27.6813 37.0755 27.6089 36.9802C27.8024 36.9601 28.0059 36.9324 28.2178 36.8969L28.3674 37.3506C28.46 37.4109 28.5525 37.4715 28.645 37.5318C28.7432 37.5963 28.8414 37.6604 28.9397 37.7245L29.1669 38.4345L30.4719 42.9046C30.6005 43.3451 30.8519 43.7356 31.1915 44.0321" fill="#DBB2A1"/>
<path d="M28.6995 36.8838L30.4593 42.9037C30.6348 43.5048 31.0391 44.0125 31.5839 44.3169L38.0766 47.9434L40.3057 45.8127L35.6852 42.3506L33.8872 38.3847C33.2265 36.6603 31.5775 35.5228 29.7389 35.5228C29.0316 35.5228 28.5166 36.1967 28.6995 36.8838" fill="#FFCEBD"/>
<path d="M14.9637 29.895C14.9637 29.895 16.1656 28.9155 17.3679 29.6906C18.5703 30.4661 18.4926 33.2179 18.4926 33.2179C18.4926 33.2179 17.473 34.2672 16.0823 34.0718L14.9637 29.895Z" fill="#FFE2D7"/>
<path d="M21.5502 32.2729C21.5502 32.2729 22.7341 31.2939 23.9185 32.069C25.1029 32.8441 25.0265 35.5957 25.0265 35.5957C25.0265 35.5957 24.1709 36.5915 22.801 36.3961L21.5502 32.2729Z" fill="#FFE2D7"/>
<path d="M28.6623 36.927C28.6623 36.927 29.7386 36.0448 30.8151 36.7435C31.8918 37.4421 31.8225 39.9218 31.8225 39.9218C31.8225 39.9218 31.0921 40.8027 29.8469 40.6264L28.6623 36.927Z" fill="#FFE2D7"/>
<path d="M135.537 82.7069C126.427 80.4467 75.2052 60.3773 68.9382 55.7073C67.7641 54.8323 66.304 52.404 66.304 52.404L68.4903 49.6556L69.149 48.07C69.149 48.07 76.6107 39.0484 80.2502 36.8435C81.4262 36.1309 82.1494 35.7816 82.1494 35.7816L84.7066 36.6983L84.9076 36.7705L135.537 46.5925L150.55 49.4326C150.55 49.4326 157.585 54.615 155.691 57.9792C153.037 62.6928 162.319 60.4547 163.218 63.1384C163.832 64.9698 164.179 66.5451 162.108 67.8807C159.597 69.4994 152.935 67.8807 152.935 67.8807C152.935 67.8807 156.492 70.131 155.691 71.6849C154.949 73.1258 150.55 73.7955 150.55 73.7955C150.55 73.7955 151.551 75.8931 150.55 76.9484C148.987 78.5955 142.817 77.4174 142.817 77.4174C142.817 77.4174 142.527 79.1637 142.817 80.2576C143.638 83.3566 151.661 83.5788 150.55 86.6414C149.128 90.5587 135.537 82.7069 135.537 82.7069Z" fill="url(#paint1_linear_441_1794)"/>
<path d="M68.4042 53.4854C68.4042 53.4832 68.4052 53.4815 68.4057 53.4794C68.4052 53.4811 68.4042 53.4836 68.4042 53.4854ZM68.4127 53.4524C68.4132 53.4503 68.4132 53.4486 68.4142 53.4464C68.4137 53.4477 68.4132 53.4507 68.4127 53.4524ZM68.4197 53.4237C68.4207 53.4212 68.4212 53.419 68.4217 53.4169C68.4212 53.4186 68.4202 53.422 68.4197 53.4237ZM68.4282 53.3912C68.4287 53.3883 68.4297 53.3857 68.4307 53.3827C68.4297 53.3852 68.4287 53.3887 68.4282 53.3912ZM68.4362 53.36C68.4372 53.3566 68.4382 53.3531 68.4392 53.3497C68.4382 53.3527 68.4367 53.357 68.4362 53.36ZM68.4437 53.3301C68.4447 53.327 68.4457 53.3236 68.4467 53.3202C68.4457 53.3236 68.4447 53.327 68.4437 53.3301ZM68.4527 53.2962C68.4537 53.2928 68.4542 53.2894 68.4552 53.286C68.4542 53.2894 68.4537 53.2928 68.4527 53.2962ZM68.4602 53.2671C68.4607 53.2646 68.4617 53.262 68.4627 53.259C68.4617 53.2616 68.4607 53.265 68.4602 53.2671ZM68.4687 53.2355C68.4692 53.2316 68.4707 53.2278 68.4717 53.2243C68.4707 53.2274 68.4692 53.2321 68.4687 53.2355ZM68.4766 53.2042C68.4776 53.1999 68.4786 53.1952 68.4801 53.191C68.4786 53.1957 68.4776 53.1995 68.4766 53.2042ZM68.4846 53.1738C68.4856 53.1704 68.4861 53.1666 68.4871 53.1627C68.4861 53.1661 68.4856 53.1704 68.4846 53.1738ZM68.4936 53.1396C68.4946 53.1362 68.4951 53.1323 68.4961 53.1289C68.4951 53.1323 68.4946 53.1366 68.4936 53.1396ZM68.5006 53.1109C68.5021 53.1071 68.5031 53.1033 68.5036 53.0998C68.5031 53.1028 68.5016 53.108 68.5006 53.1109ZM68.5096 53.0789C68.5106 53.075 68.5116 53.0716 68.5126 53.0677C68.5116 53.0711 68.5101 53.0755 68.5096 53.0789ZM68.5181 53.0455C68.5191 53.042 68.5201 53.0382 68.5211 53.0344C68.5206 53.0378 68.5191 53.0425 68.5181 53.0455ZM68.5261 53.0168C68.5271 53.0134 68.5276 53.0104 68.5286 53.0074C68.5276 53.0104 68.5271 53.0134 68.5261 53.0168ZM68.5351 52.9834C68.5361 52.98 68.5366 52.9766 68.5376 52.9732C68.5366 52.9762 68.5361 52.98 68.5351 52.9834ZM68.5426 52.9543C68.5436 52.9505 68.5446 52.9467 68.5456 52.9428C68.5446 52.9467 68.5436 52.9501 68.5426 52.9543ZM68.5511 52.9227C68.552 52.9193 68.553 52.9158 68.5535 52.9124C68.553 52.9162 68.552 52.9184 68.5511 52.9227ZM68.56 52.8884C68.561 52.8855 68.562 52.8824 68.5625 52.8795C68.562 52.8824 68.561 52.8855 68.56 52.8884ZM68.568 52.8606C68.5685 52.8576 68.569 52.8551 68.57 52.8517C68.569 52.8551 68.5685 52.8576 68.568 52.8606ZM68.577 52.8273C68.5775 52.8243 68.578 52.8217 68.579 52.8191C68.5785 52.8213 68.5775 52.8247 68.577 52.8273ZM68.5855 52.7943C68.586 52.7926 68.5865 52.7913 68.587 52.7896C68.5865 52.7913 68.586 52.7926 68.5855 52.7943Z" fill="#85A6D1"/>
<path d="M68.5936 52.7651C68.5941 52.763 68.5946 52.7613 68.5946 52.7596C68.5946 52.7609 68.5941 52.7634 68.5936 52.7651ZM68.6021 52.7327C68.6026 52.7309 68.6031 52.7292 68.6036 52.7275C68.6031 52.7288 68.6026 52.7309 68.6021 52.7327ZM68.6106 52.7014C68.6111 52.7006 68.6111 52.6997 68.6116 52.6993C68.6111 52.7001 68.6111 52.7006 68.6106 52.7014ZM68.6191 52.6706C68.6196 52.6693 68.6201 52.668 68.6206 52.6667C68.6201 52.6684 68.6196 52.6689 68.6191 52.6706ZM68.6366 52.6073V52.6068C68.6366 52.6077 68.6366 52.6064 68.6366 52.6073Z" fill="#858DB0"/>
<path d="M22.0907 34.2583L22.0054 34.2164L21.4149 32.9789L21.8089 33.2074L22.1317 34.2506C22.118 34.2532 22.1043 34.2557 22.0907 34.2583" fill="url(#paint2_radial_441_1794)"/>
<path d="M21.809 33.2073L21.415 32.9788L21.271 32.6771L21.7267 32.9411L21.809 33.2073" fill="url(#paint3_radial_441_1794)"/>
<path d="M20.4966 34.4278C19.2884 34.4278 18.5599 34.0491 18.3493 33.3525C18.4418 33.2746 18.4916 33.2233 18.4916 33.2233C18.4916 33.2233 18.5058 32.7158 18.4271 32.0757C18.5494 31.6901 18.7517 31.2618 19.0358 30.7941C19.0579 30.8421 19.0794 30.8904 19.1002 30.9392C19.3688 31.569 19.5298 32.2421 19.822 32.8613C20.1142 33.48 20.573 34.0645 21.2178 34.2896C21.2066 34.3234 21.197 34.3572 21.1888 34.391C20.943 34.4154 20.7122 34.4278 20.4966 34.4278ZM22.09 34.2583L22.0047 34.2164L20.6114 31.2961C20.59 31.2404 20.5674 31.1852 20.5441 31.1305C20.5365 31.1129 20.5284 31.0954 20.5206 31.0774C20.5045 31.041 20.4883 31.0042 20.4713 30.9683C20.4616 30.9478 20.4514 30.9268 20.4414 30.9062C20.4255 30.8737 20.4095 30.8412 20.393 30.8095C20.3819 30.7877 20.3707 30.7663 20.3593 30.7454C20.3429 30.7146 20.3261 30.6837 20.3091 30.6534C20.2972 30.632 20.2852 30.611 20.273 30.59C20.2554 30.5597 20.2375 30.5297 20.2194 30.5002C20.207 30.4796 20.1946 30.4595 20.182 30.4394C20.1626 30.4086 20.1426 30.3782 20.1226 30.3478C20.1105 30.3295 20.0986 30.311 20.0864 30.2931C20.0617 30.2567 20.0363 30.2212 20.0107 30.1857C20.0025 30.1741 19.9945 30.1626 19.9861 30.151C19.9525 30.1052 19.9181 30.0603 19.8831 30.0158C19.8698 29.9991 19.8559 29.9824 19.8423 29.9657C19.8198 29.9379 19.7972 29.9101 19.774 29.8827C19.7576 29.8635 19.7408 29.8446 19.7241 29.8254C19.7198 29.8207 19.7155 29.816 19.7113 29.8108C19.7114 29.8108 19.7115 29.8104 19.7117 29.8104C20.0906 30.2396 20.3979 30.7402 20.6114 31.2961L21.2702 32.6773L21.4142 32.979L22.0047 34.2164L22.09 34.2583" fill="url(#paint4_radial_441_1794)"/>
<path d="M21.1908 34.3912C21.199 34.3574 21.2086 34.3236 21.2198 34.2898C20.575 34.0647 20.1162 33.4802 19.824 32.8615C19.5318 32.2423 19.3708 31.5692 19.1022 30.9394C19.0814 30.8906 19.0599 30.8422 19.0378 30.7943C19.2266 30.4832 19.4514 30.1555 19.7133 29.811C19.7175 29.8162 19.7218 29.8209 19.7261 29.8256C19.7428 29.8448 19.7596 29.8637 19.776 29.8829C19.7992 29.9103 19.8218 29.9381 19.8443 29.9659C19.8579 29.9826 19.8718 29.9993 19.8851 30.016C19.9201 30.0605 19.9545 30.1054 19.9881 30.1512C19.9965 30.1628 20.0044 30.1743 20.0127 30.1859C20.0383 30.2214 20.0636 30.2569 20.0883 30.2933C20.1006 30.3112 20.1125 30.3296 20.1246 30.348C20.1446 30.3784 20.1646 30.4088 20.184 30.4396C20.1966 30.4597 20.209 30.4798 20.2214 30.5004C20.2395 30.5299 20.2574 30.5598 20.275 30.5902C20.2872 30.6112 20.2992 30.6321 20.3111 30.6535C20.3281 30.6839 20.3449 30.7147 20.3613 30.7455C20.3727 30.7665 20.3839 30.7879 20.395 30.8097C20.4115 30.8414 20.4275 30.8739 20.4433 30.9064C20.4534 30.927 20.4636 30.9479 20.4733 30.9685C20.4903 31.0044 20.5065 31.0412 20.5226 31.0776C20.5304 31.0956 20.5385 31.1131 20.5461 31.1306C20.5694 31.1854 20.5919 31.2406 20.6134 31.2962L22.0067 34.2166L22.092 34.2585C21.7725 34.3193 21.4715 34.3634 21.1908 34.3912Z" fill="url(#paint5_radial_441_1794)"/>
<path d="M22.1325 34.2505L21.8098 33.2073L21.7275 32.9411L21.5228 32.2792C21.3219 31.5261 21.8875 30.7871 22.6644 30.7871H22.6645C24.0157 30.7871 25.2736 31.3451 26.1755 32.2813C26.1753 32.2813 26.1753 32.2813 26.1751 32.2818C26.1664 32.2728 26.1577 32.2634 26.149 32.2544C26.1201 32.2253 26.0906 32.1962 26.0611 32.1675C26.0457 32.1525 26.0305 32.1376 26.0149 32.1226C25.983 32.0926 25.9504 32.0631 25.9177 32.0336C25.9038 32.0212 25.8901 32.0083 25.876 31.9959C25.8393 31.9638 25.802 31.9326 25.7644 31.9018C25.7537 31.8928 25.7433 31.8838 25.7325 31.8753C25.6863 31.8376 25.6395 31.8012 25.592 31.7657L25.5844 31.7597C25.4816 31.6827 25.3756 31.6095 25.267 31.5411C25.3087 31.6014 25.3493 31.6626 25.3873 31.7251C25.5771 32.0374 25.7272 32.369 25.8547 32.7109C25.7248 32.8924 25.6056 33.0695 25.4971 33.2411C25.261 33.3318 25.0265 33.4182 24.7956 33.5C24.6338 32.9052 24.3646 32.3391 23.9171 32.0498C23.5778 31.8299 23.2388 31.7516 22.9269 31.7516C22.1392 31.7516 21.5255 32.2535 21.5255 32.2535L22.1378 34.2492C22.136 34.2496 22.1343 34.2501 22.1325 34.2505" fill="url(#paint6_radial_441_1794)"/>
<path d="M26.2265 33.7784C26.0234 33.1142 25.7844 32.47 25.482 31.8631C25.4216 31.7418 25.357 31.6229 25.2905 31.5057C25.4635 31.6387 25.6322 31.7808 25.7961 31.9305L25.8082 31.9421C25.8838 32.0111 25.9584 32.0818 26.0319 32.1549C26.049 32.1715 26.0656 32.189 26.0827 32.2064C26.1425 32.2663 26.202 32.327 26.2604 32.3893C26.2828 32.4134 26.3047 32.4384 26.3268 32.4625C26.3789 32.5198 26.4308 32.5772 26.4816 32.6354C26.5064 32.6645 26.5307 32.6936 26.5552 32.7227C26.6023 32.7784 26.6491 32.8349 26.6951 32.8914C26.7091 32.9089 26.7229 32.9272 26.7367 32.9446C26.5561 33.2281 26.3865 33.5057 26.2265 33.7784" fill="url(#paint7_radial_441_1794)"/>
<path d="M18.3511 33.3524C18.2458 33.0041 18.2703 32.5757 18.4289 32.0755C18.5076 32.7157 18.4934 33.2231 18.4934 33.2231C18.4934 33.2231 18.4436 33.2745 18.3511 33.3524" fill="url(#paint8_radial_441_1794)"/>
<path d="M22.1379 34.25L21.5257 32.2543C21.5257 32.2543 22.1394 31.7524 22.9271 31.7524C23.239 31.7524 23.578 31.8307 23.9173 32.0506C24.3647 32.3399 24.634 32.906 24.7957 33.5008C24.4394 33.627 24.09 33.7421 23.7479 33.8452C23.1669 34.0206 22.6299 34.155 22.1379 34.25" fill="url(#paint9_radial_441_1794)"/>
<path d="M26.8684 37.0153C25.6176 37.0153 24.8811 36.61 24.7009 35.8659C24.9173 35.7055 25.0342 35.5711 25.0342 35.5711C25.0342 35.5711 25.0509 34.9768 24.9484 34.2626C25.083 33.946 25.2653 33.6041 25.4953 33.2404C25.6533 33.1792 25.8125 33.1167 25.9725 33.0521C26.1071 33.4603 26.2184 33.8788 26.3344 34.2922C26.5817 35.174 26.8684 36.0705 27.4377 36.7868C27.4877 36.8497 27.5403 36.9117 27.5894 36.9759C27.3327 37.0024 27.0924 37.0153 26.8684 37.0153V37.0153ZM28.2012 36.8925L27.2191 33.9242C27.1956 33.863 27.1709 33.8026 27.1452 33.7432C27.1367 33.7231 27.1275 33.7038 27.1187 33.6846C27.101 33.6448 27.0833 33.605 27.0646 33.5656C27.0538 33.5429 27.0423 33.5211 27.0312 33.4984C27.0135 33.4629 26.996 33.4274 26.9775 33.3923C26.9652 33.3692 26.9523 33.3461 26.9396 33.323C26.9213 33.2896 26.9031 33.2567 26.8841 33.2237C26.8706 33.2006 26.8567 33.1775 26.8429 33.1548C26.8236 33.1227 26.8043 33.0906 26.7843 33.059C26.77 33.0363 26.7553 33.014 26.7406 32.9918C26.7201 32.9606 26.6996 32.9298 26.6785 32.8989C26.6634 32.8771 26.6481 32.8557 26.6326 32.8339C26.6222 32.8194 26.6117 32.8048 26.6011 32.7903C26.6015 32.7898 26.6014 32.7898 26.6018 32.7898C26.8527 33.1334 27.0615 33.5138 27.2191 33.9242L28.1187 36.643L28.2012 36.8925" fill="url(#paint10_radial_441_1794)"/>
<path d="M27.5907 36.9762C27.5416 36.912 27.489 36.85 27.439 36.7871C26.8697 36.0708 26.583 35.1743 26.3357 34.2925C26.2197 33.8791 26.1083 33.4606 25.9738 33.0524C26.1819 32.9681 26.3914 32.8808 26.6024 32.7906C26.613 32.8051 26.6235 32.8197 26.6339 32.8342C26.6494 32.856 26.6647 32.8774 26.6798 32.8992C26.7009 32.9301 26.7214 32.9609 26.7419 32.9921C26.7565 33.0143 26.7713 33.0366 26.7856 33.0593C26.8055 33.0909 26.8249 33.123 26.8442 33.1551C26.858 33.1778 26.8719 33.2009 26.8854 33.224C26.9044 33.257 26.9226 33.2899 26.9409 33.3233C26.9536 33.3464 26.9665 33.3695 26.9788 33.3926C26.9973 33.4277 27.0148 33.4632 27.0325 33.4987C27.0436 33.5214 27.0551 33.5432 27.0659 33.5659C27.0846 33.6053 27.1023 33.6451 27.12 33.6849C27.1288 33.7041 27.138 33.7234 27.1465 33.7435C27.1722 33.803 27.1969 33.8633 27.2204 33.9245L28.2025 36.8928C27.9896 36.9283 27.7852 36.9561 27.5907 36.9762" fill="url(#paint11_radial_441_1794)"/>
<path d="M28.6847 36.8027C28.5674 36.1484 29.0685 35.5327 29.7456 35.5327C30.3962 35.5327 31.0232 35.6743 31.5913 35.9345C31.0876 36.1219 30.5958 36.2888 30.1189 36.433C30.0869 36.4424 30.055 36.4522 30.0234 36.4612C29.9927 36.4599 29.9624 36.4591 29.9325 36.4591C29.5032 36.4591 29.1309 36.6242 28.9036 36.7552C28.8295 36.7719 28.7569 36.7873 28.6847 36.8027" fill="url(#paint12_radial_441_1794)"/>
<path d="M24.7027 35.8667C24.5992 35.4397 24.6791 34.9009 24.9502 34.2634C25.0527 34.9775 25.036 35.5719 25.036 35.5719C25.036 35.5719 24.9191 35.7062 24.7027 35.8667" fill="url(#paint13_radial_441_1794)"/>
<path d="M28.9035 36.7549C29.1308 36.624 29.5031 36.4588 29.9325 36.4588C29.9623 36.4588 29.9926 36.4597 30.0233 36.461C29.6294 36.5778 29.2559 36.6758 28.9035 36.7549" fill="url(#paint14_radial_441_1794)"/>
<path d="M33.1687 39.5392C32.6185 39.5392 32.1681 39.4609 31.8205 39.3094C31.777 38.659 31.6311 37.6312 31.153 37.0296C31.2711 36.7044 31.4426 36.351 31.6691 35.9706C32.6364 36.4357 33.4242 37.2453 33.8537 38.2765C33.4592 37.3296 32.7623 36.5696 31.9015 36.0917C31.98 36.1888 32.0529 36.2906 32.1178 36.3976C32.5281 37.0732 32.6433 37.8815 32.8877 38.6333C32.9883 38.944 33.1129 39.2465 33.2583 39.5388C33.2285 39.5392 33.1986 39.5392 33.1687 39.5392ZM33.8968 38.3843C33.8964 38.3834 33.8964 38.383 33.8964 38.3826C33.8964 38.3835 33.8964 38.3834 33.8968 38.3843ZM33.893 38.374C33.8926 38.3736 33.8926 38.3728 33.8921 38.3723C33.8926 38.3728 33.8926 38.3732 33.893 38.374ZM33.8887 38.3633C33.8887 38.3629 33.8883 38.3625 33.8883 38.3621C33.8883 38.3625 33.8887 38.3629 33.8887 38.3633ZM33.8849 38.3539C33.8849 38.3535 33.8849 38.3531 33.8845 38.3526C33.8845 38.3531 33.8849 38.3535 33.8849 38.3539ZM33.881 38.3445C33.881 38.3437 33.8806 38.3428 33.8802 38.3419C33.8806 38.3428 33.881 38.3437 33.881 38.3445ZM33.8772 38.3342C33.8768 38.333 33.8764 38.3321 33.8759 38.3312C33.8764 38.3321 33.8768 38.3334 33.8772 38.3342ZM33.8734 38.3244C33.8729 38.3231 33.8721 38.3223 33.8717 38.321C33.8725 38.3223 33.8729 38.3231 33.8734 38.3244ZM33.8695 38.3154C33.8691 38.3141 33.8687 38.3128 33.8683 38.3116C33.8687 38.3128 33.8691 38.3141 33.8695 38.3154ZM33.8653 38.3051C33.8648 38.3039 33.8644 38.3021 33.8636 38.3009C33.8644 38.3021 33.8648 38.3034 33.8653 38.3051ZM33.8619 38.2962C33.861 38.294 33.8601 38.2919 33.8589 38.2897C33.8601 38.2919 33.861 38.294 33.8619 38.2962ZM33.858 38.2867C33.8567 38.2837 33.8555 38.2812 33.8542 38.2782C33.8555 38.2808 33.8567 38.2842 33.858 38.2867Z" fill="url(#paint15_radial_441_1794)"/>
<path d="M31.8196 39.3094C30.9823 38.9453 30.7435 38.1588 31.1521 37.0296C31.6302 37.6312 31.7761 38.659 31.8196 39.3094Z" fill="url(#paint16_radial_441_1794)"/>
<path d="M33.2581 39.5392C33.1127 39.2469 32.9881 38.9444 32.8874 38.6338C32.643 37.882 32.5279 37.0737 32.1176 36.398C32.0527 36.2911 31.9798 36.1892 31.9013 36.0921C32.762 36.57 33.459 37.33 33.8535 38.2769C33.8535 38.2773 33.854 38.2778 33.854 38.2786C33.8552 38.2816 33.8565 38.2842 33.8578 38.2872C33.8582 38.2885 33.8587 38.2893 33.8587 38.2902C33.8599 38.2923 33.8608 38.2944 33.8616 38.2966C33.8621 38.2983 33.8629 38.2996 33.8633 38.3013C33.8642 38.3026 33.8646 38.3043 33.8651 38.3056C33.8659 38.3077 33.8668 38.3098 33.868 38.312C33.8685 38.3133 33.8689 38.3146 33.8693 38.3158C33.8702 38.3176 33.871 38.3193 33.8715 38.3214C33.8719 38.3227 33.8727 38.3235 33.8732 38.3248C33.874 38.3274 33.8749 38.3295 33.8757 38.3317C33.8761 38.3325 33.8766 38.3334 33.877 38.3347C33.8779 38.3372 33.8791 38.3398 33.88 38.3424C33.8804 38.3432 33.8808 38.3441 33.8808 38.3449C33.8821 38.3475 33.883 38.3501 33.8843 38.3531C33.8847 38.3535 33.8847 38.3539 33.8847 38.3544C33.886 38.3573 33.8868 38.3599 33.8881 38.3625C33.8881 38.3629 33.8885 38.3633 33.8885 38.3638C33.8898 38.3668 33.8906 38.3698 33.8919 38.3727C33.8924 38.3732 33.8924 38.374 33.8928 38.3745C33.8936 38.377 33.8949 38.3805 33.8962 38.383C33.8962 38.3834 33.8962 38.3839 33.8966 38.3847C33.8979 38.3877 33.8988 38.3907 33.9 38.3937L34.3743 39.4373C33.967 39.5007 33.5946 39.534 33.2581 39.5392" fill="url(#paint17_radial_441_1794)"/>
<path d="M56.281 23.8496L53.2786 22.1107C53.2791 22.1012 53.2795 22.0914 53.2795 22.082C53.416 22.0666 53.5478 22.0555 53.6753 22.0473C54.3509 22.2976 55.0875 22.4008 55.828 22.5039C56.1999 22.8124 56.3543 23.2664 56.281 23.8496" fill="url(#paint18_radial_441_1794)"/>
<path d="M37.8808 43.5364C37.7328 43.5364 37.592 43.5304 37.4585 43.5193L36.55 42.9934L35.708 42.3635C35.6402 42.0614 35.6624 41.7046 35.7776 41.2976L39.3805 43.3845C38.8191 43.4867 38.3184 43.5364 37.8808 43.5364Z" fill="url(#paint19_radial_441_1794)"/>
<path d="M37.4583 43.5187C37.3747 43.5118 37.2941 43.5024 37.216 43.4913L36.5498 42.9928L37.4583 43.5187Z" fill="url(#paint20_radial_441_1794)"/>
<path d="M37.2159 43.4918C36.356 43.366 35.8458 42.9779 35.7076 42.3635L37.2159 43.4918Z" fill="url(#paint21_radial_441_1794)"/>
<path d="M49.2505 44.2558L63.9124 35.7635C60.0418 39.1661 54.1425 42.5824 49.2505 44.2558Z" fill="url(#paint22_radial_441_1794)"/>
<path d="M18.2864 0.359858L18.3278 0.442787C18.4104 0.567183 18.4931 0.733046 18.4931 0.940372V11.1408C18.4931 11.5555 18.2038 12.0945 17.8318 12.3018L4.8531 19.807C4.68776 19.89 4.4811 19.9314 4.27443 19.9314H4.2331C3.81976 19.8485 3.53043 19.5168 3.53043 19.0607V8.69436C3.53043 8.27971 3.81977 7.74066 4.19177 7.53334L17.1291 0.111068C17.5424 -0.0962583 18.0384 -0.0133285 18.2864 0.359858Z" fill="url(#paint23_linear_441_1794)"/>
<path d="M17.8318 0.442682C18.2038 0.235356 18.4931 0.401217 18.4931 0.857334V11.0992C18.4931 11.5139 18.2038 12.0529 17.8318 12.2603L4.81176 19.8069C4.43976 20.0143 4.15043 19.8484 4.15043 19.4337V9.10891C4.15043 8.69426 4.43976 8.15521 4.81176 7.94789L17.8318 0.442682Z" fill="url(#paint24_linear_441_1794)"/>
<path d="M11.56 6.8564L14.2792 9.11513C14.5974 9.38246 14.5919 10.0886 14.2917 10.3872L11.6173 13.047C11.3171 13.3455 10.9133 13.0464 10.9225 12.4534L10.9051 7.50777C10.8597 6.96904 11.2417 6.58907 11.56 6.8564L14.2792 9.11513C14.5974 9.38246 14.5919 10.0886 14.2917 10.3872L11.6173 13.047C11.3171 13.3455 10.9133 13.0464 10.9225 12.4534L10.9051 7.50777C10.8597 6.96904 11.2417 6.58907 11.56 6.8564Z" fill="url(#paint25_linear_441_1794)"/>
<path d="M12.2345 12.4219L24.8331 4.93695C25.431 4.58156 26.1874 5.01391 26.1874 5.71111V14.5379C26.1874 15.4696 25.6914 16.3312 24.8868 16.7975L12.3046 24.085C11.7065 24.4309 10.959 23.9981 10.959 23.3054V14.6669C10.959 13.7452 11.4439 12.8918 12.2345 12.4219" fill="url(#paint26_linear_441_1794)"/>
<path d="M11.5491 23.542V14.904C11.5491 13.9818 12.034 13.1284 12.8246 12.6585L25.4234 5.17356C25.5754 5.08301 25.7375 5.04408 25.8954 5.04679C25.6201 4.79644 25.1977 4.71993 24.8331 4.93678L12.2345 12.4217C11.4439 12.8916 10.959 13.745 10.959 14.6668V23.3053C10.959 23.8245 11.3789 24.1976 11.841 24.2062C11.6647 24.0459 11.5491 23.8141 11.5491 23.542Z" fill="url(#paint27_linear_441_1794)"/>
<path d="M12.9835 14.533L24.9891 7.57943V8.66393L12.9835 15.543V14.533" fill="white"/>
<path d="M12.9844 16.5094L24.9967 9.54057V10.6276L12.9844 17.5214V16.5094Z" fill="white"/>
<path d="M12.9844 18.4714L24.9967 11.5487V12.6286L12.9844 19.4767V18.4714Z" fill="white"/>
<path d="M12.9844 20.467L19.7808 16.4115V17.505L12.9844 21.4854V20.467Z" fill="white"/>
<path d="M28.0799 14.8077L28.0086 14.7478C27.8665 14.6485 27.6795 14.6518 27.5174 14.7362L22.3066 17.4968C22.1909 17.5599 22.0506 17.5624 21.9326 17.5034L20.8477 16.9931C20.7059 16.9142 20.5189 16.9175 20.3802 17.0014L18.203 18.1399C17.9714 18.2662 17.7896 18.5546 17.7941 18.7989L20.5796 26.6317C20.5811 26.7131 20.6542 26.8748 20.7949 26.8926L21.6846 26.9583L30.55 22.0146C30.7815 21.8883 30.9633 21.6 30.9588 21.3556L28.2008 15.0296C28.1756 14.9282 28.1511 14.8675 28.0799 14.8077Z" fill="url(#paint28_linear_441_1794)" fill-opacity="0.5"/>
<path d="M28.9034 15.0781C28.8989 14.8338 28.7104 14.7557 28.4785 14.8616L23.2674 17.6018C23.1516 17.665 23.0114 17.6675 22.8934 17.6085L21.8084 17.0982C21.6667 17.0192 21.4797 17.0225 21.3409 17.1065L19.1637 18.2449C18.9322 18.3713 18.7504 18.6596 18.7549 18.904L21.5159 26.6761C21.5204 26.9204 21.7089 26.9985 21.9408 26.8926L31.2517 22.0225C31.4833 21.8961 31.6651 21.6078 31.6606 21.3635L28.9034 15.0781Z" fill="url(#paint29_linear_441_1794)"/>
<path d="M29.0287 9.19227C29.2835 9.06556 29.4957 9.16361 29.5005 9.42826L29.719 21.378C29.7239 21.6426 29.5191 21.9517 29.2647 22.0988L20.6744 26.6091C20.4196 26.7358 20.2074 26.6378 20.2026 26.3731L19.9841 14.4234C19.9792 14.1587 20.184 13.8496 20.4384 13.7026L29.0287 9.19227Z" fill="#F6F9FC"/>
<path d="M20.4384 13.7026L29.0287 9.19227C29.2835 9.06556 29.4957 9.16361 29.5005 9.42826L29.502 9.50969L20.9351 14.0196C20.6803 14.1463 20.4759 14.4757 20.4808 14.7404L20.6974 26.5883L20.674 26.5887C20.4192 26.7155 20.207 26.6174 20.2022 26.3528L19.9837 14.403C19.9792 14.1587 20.184 13.8496 20.4384 13.7026Z" fill="url(#paint30_linear_441_1794)"/>
<path d="M30.1928 7.58301C30.4476 7.45631 30.6598 7.55436 30.6646 7.81901L30.8831 19.7687C30.888 20.0334 30.6832 20.3425 30.4288 20.4895L21.8385 24.9999C21.5837 25.1266 21.3715 25.0285 21.3667 24.7639L21.1482 12.8141C21.1434 12.5495 21.3481 12.2404 21.6026 12.0933L30.1928 7.58301Z" fill="#F6F9FC"/>
<path d="M21.6017 12.0937L30.1919 7.58333C30.4467 7.45663 30.6352 7.53474 30.663 7.77861C30.6396 7.77903 30.6166 7.7998 30.5933 7.80021L22.003 12.3105C21.7482 12.4372 21.5438 12.7667 21.5487 13.0313L21.7672 24.9811C21.7676 25.0014 21.7676 25.0014 21.7679 25.0218C21.5357 25.1073 21.3703 25.0085 21.3658 24.7642L21.1473 12.8144C21.1425 12.5498 21.3468 12.2204 21.6017 12.0937Z" fill="url(#paint31_linear_441_1794)"/>
<path d="M22.2011 14.1819L30.1231 10.0081L30.1179 9.72302L22.1959 13.8968L22.2011 14.1819Z" fill="#D1E1F2"/>
<path d="M22.2211 15.2599L30.1432 11.0861L30.1379 10.801L22.2156 14.9545L22.2211 15.2599Z" fill="#D1E1F2"/>
<path d="M22.239 16.3189L30.161 12.1451L30.1558 11.86L22.2338 16.0338L22.239 16.3189Z" fill="#D1E1F2"/>
<path d="M22.259 17.3976L30.1811 13.2238L30.1758 12.9387L22.2535 17.0921L22.259 17.3976Z" fill="#D1E1F2"/>
<path d="M22.279 18.4559L30.2014 14.3025L30.1958 13.997L22.2738 18.1708L22.279 18.4559Z" fill="#D1E1F2"/>
<path d="M32.0812 15.0009C31.846 14.9236 31.6126 14.9481 31.4041 15.0536L26.2634 17.7925C26.1477 17.8556 25.8605 17.4941 25.7429 17.4555L24.9207 17.246C24.6858 17.1891 24.4524 17.2136 24.2439 17.3191L22.1366 18.4359C21.9051 18.5622 21.7233 18.8506 21.7278 19.0949L21.8715 26.9537C21.876 27.1981 22.0667 27.3983 22.3479 27.4341L23.2387 27.5608L31.868 22.5198C32.0995 22.3935 32.2813 22.1052 32.2768 21.8608L32.8811 15.2718L32.0812 15.0009Z" fill="url(#paint32_linear_441_1794)" fill-opacity="0.5"/>
<path d="M33.002 15.4932C32.9975 15.2489 32.809 15.1708 32.5771 15.2768L27.3665 18.0168C27.2507 18.0799 27.1105 18.0824 26.9925 18.0234L25.9076 17.5132C25.7659 17.4342 25.5789 17.4375 25.4401 17.5214L23.2631 18.6598C23.0316 18.7861 22.8499 19.0745 22.8543 19.3188L23.0003 27.2996C23.0047 27.5439 23.1932 27.6221 23.4251 27.5161L32.7353 22.6464C32.9668 22.5201 33.1486 22.2317 33.1441 21.9874L33.002 15.4932Z" fill="url(#paint33_linear_441_1794)" fill-opacity="0.5"/>
<path d="M27.5684 28.6456L26.9922 28.2657C26.961 28.2468 26.9329 28.2267 26.9081 28.2049C26.819 28.1275 26.7695 28.0307 26.7657 27.9152C26.7657 27.9105 26.7657 27.9058 26.7657 27.9007V27.5117V27.3893V27.0466V25.7792V25.5721V25.0629V24.8554V24.0081V23.8092V23.7279V22.8216V22.7433V22.6231C26.7657 22.0441 27.176 21.3368 27.678 21.051L31.8879 18.642L32.2155 18.4541C32.2304 18.4455 32.2453 18.4378 32.2607 18.431C32.3358 18.3963 32.4168 18.3792 32.4974 18.3792C32.5085 18.3792 32.5196 18.3797 32.5311 18.3801C32.6352 18.3865 32.738 18.4216 32.8267 18.4849L33.3326 18.8781C33.2537 18.8195 33.1573 18.7887 33.0489 18.7887C32.9278 18.7887 32.7917 18.8277 32.648 18.9094L28.2534 21.4117C27.7518 21.6975 27.3411 22.4048 27.3411 22.9838V28.083C27.3411 28.3482 27.4272 28.5421 27.5684 28.6456" fill="url(#paint34_linear_441_1794)"/>
<path d="M27.8441 28.7324C27.784 28.7324 27.7277 28.7229 27.6761 28.7041C27.6368 28.69 27.6001 28.6703 27.5665 28.6455C27.4253 28.5419 27.3391 28.3481 27.3391 28.0828V22.9836C27.3391 22.4047 27.7499 21.6974 28.2515 21.4116L32.646 18.9093C32.7898 18.8275 32.9258 18.7886 33.047 18.7886C33.1553 18.7886 33.2517 18.8194 33.3306 18.878C33.4722 18.9829 33.5584 19.1771 33.5584 19.442V19.8776V20.0808V20.2883V21.1356V21.3431V21.4021L32.4852 22.0397L32.4848 21.7479L32.4831 21.7393L32.1986 22.21L31.5584 22.5904L32.3496 21.2811C32.3491 21.2734 32.3466 21.2674 32.3453 21.2601C32.3427 21.2455 32.3406 21.2306 32.3351 21.2194C32.3321 21.2135 32.3265 21.2105 32.3227 21.2053C32.3154 21.1963 32.309 21.1865 32.2992 21.1814C32.2916 21.1771 32.2822 21.1775 32.2732 21.1758C32.2655 21.1741 32.2587 21.1711 32.2502 21.1711C32.2493 21.1711 32.2485 21.1711 32.2476 21.1711C32.228 21.1728 32.2067 21.1796 32.1841 21.1925L28.7932 23.2297C28.7595 23.2489 28.7292 23.281 28.7032 23.3161C28.6985 23.3221 28.6938 23.3281 28.6895 23.3345C28.666 23.3709 28.6469 23.4107 28.6366 23.4509L28.6358 23.4565L30.1905 23.827C30.1892 23.8291 30.1879 23.8317 30.1871 23.8343C30.1696 23.8737 30.1529 23.9134 30.138 23.9541C30.1056 24.0414 30.0787 24.1312 30.0587 24.2228L28.6456 23.8886C28.6409 23.9096 28.6358 23.9306 28.6358 23.9502V26.5189C28.6358 26.5946 28.6742 26.6383 28.7292 26.6383C28.7518 26.6383 28.7765 26.6314 28.803 26.6164L30.0105 25.9262V27.5878L29.6987 27.7687L29.2875 28.0067L29.1084 28.1102L28.6319 28.3862L28.4532 28.4902L28.2476 28.6091C28.109 28.6891 27.9776 28.7289 27.8599 28.7324C27.8548 28.7324 27.8492 28.7324 27.8441 28.7324" fill="url(#paint35_linear_441_1794)"/>
<path d="M28.6245 23.8983L30.611 24.3637C30.7673 24.4006 30.9301 24.3328 31.0135 24.1958L32.5098 21.7419L32.5115 21.7505L32.5133 24.3289C32.5137 24.4354 32.4377 24.5655 32.3444 24.6183L28.7838 26.6352C28.691 26.6875 28.6146 26.6438 28.6146 26.5373V23.9602C28.6146 23.9404 28.6197 23.9194 28.6245 23.8983" fill="white"/>
<path d="M30.4658 23.899L28.6146 23.4585L28.6154 23.4529C28.6257 23.4124 28.6451 23.3724 28.6687 23.3358C28.673 23.3294 28.6777 23.3234 28.6824 23.3173C28.7086 23.2821 28.7391 23.2498 28.7731 23.2304L32.1885 21.1821C32.2113 21.1692 32.2328 21.1623 32.2525 21.1606C32.262 21.1597 32.2697 21.1636 32.2783 21.1653C32.2873 21.167 32.2968 21.1666 32.3045 21.1709C32.3144 21.1761 32.3208 21.1859 32.3282 21.195C32.332 21.2001 32.3376 21.2032 32.3406 21.2092C32.3462 21.2204 32.3483 21.2354 32.3509 21.2501C32.3522 21.2574 32.3548 21.2634 32.3552 21.2711L30.8666 23.7304C30.7837 23.8676 30.6217 23.9356 30.4658 23.899" fill="white"/>
<path d="M30.0124 27.5886V25.9271L30.9601 25.385V27.0396L30.4436 27.3387L30.0124 27.5886ZM30.6936 24.3632C30.6658 24.3632 30.6373 24.3602 30.6095 24.3533L30.0606 24.2237C30.0806 24.1321 30.1075 24.0423 30.1399 23.955C30.1549 23.9143 30.1715 23.8745 30.189 23.8352C30.1898 23.8326 30.1911 23.83 30.1924 23.8279L30.4756 23.8955C30.5038 23.9019 30.5319 23.9053 30.5601 23.9053C30.6863 23.9053 30.8062 23.8394 30.8736 23.7278L31.5603 22.5913L32.2005 22.2109L31.0071 24.186C30.9397 24.2977 30.8198 24.3632 30.6936 24.3632V24.3632ZM32.4875 23.0786L32.4871 22.0406L33.5603 21.403V22.4415L32.4875 23.0786Z" fill="url(#paint36_linear_441_1794)"/>
<path d="M30.0381 25.9175V24.6618C30.0381 24.5136 30.0544 24.3679 30.0853 24.2264L30.6228 24.3551C30.6499 24.3619 30.6779 24.3649 30.705 24.3649C30.8287 24.3649 30.946 24.2999 31.012 24.189L32.1805 22.2283L32.4612 22.0592L32.4616 23.0897L31.9329 23.4083C31.3336 23.7694 30.9661 24.4252 30.9661 25.1338V25.3793L30.0381 25.9175Z" fill="#B8CAC7"/>
<path d="M34.3709 17.9658L34.057 17.7921C34.0071 17.7506 33.9521 17.7176 33.8915 17.6945C33.6825 17.6145 33.4142 17.6483 33.1225 17.8173C32.4588 18.2016 31.9158 19.1451 31.9158 19.914C31.9158 20.3269 32.0728 20.6089 32.3206 20.7214V20.7219L32.7207 20.9589L33.0496 20.6825L33.0223 20.6658C33.0555 20.65 33.0888 20.6324 33.1225 20.6132C33.7862 20.2285 34.3291 19.285 34.3291 18.5161C34.3291 18.451 34.3249 18.389 34.3176 18.3304L34.3709 17.9658" fill="url(#paint37_linear_441_1794)"/>
<path d="M33.5676 18.0775C34.2312 17.6933 34.7742 18.0078 34.7742 18.7767C34.7742 19.5452 34.2312 20.4891 33.5676 20.8734C32.9039 21.2576 32.3609 20.9431 32.3609 20.1746C32.3609 19.4057 32.9039 18.4622 33.5676 18.0775Z" fill="url(#paint38_linear_441_1794)"/>
<path d="M33.4097 18.7899L33.416 20.3677L33.7258 20.1953V18.6235L33.4097 18.7899" fill="white"/>
<path d="M31.7534 31.7177C31.3904 31.7177 31.0577 31.4267 31.0577 31.0198V30.2103V30.1328V29.5825V29.0464V28.8389V28.2869V27.7636V26.9424V26.2347V24.5801V24.3327C31.0577 23.619 31.4331 22.9583 32.0452 22.5946L32.5851 22.2737L33.6579 21.6366L38.2798 18.8904L41.2442 17.1292L41.2595 17.1202L41.4459 17.0094L41.7982 16.8001C41.8592 16.7642 41.9219 16.7385 41.985 16.7227C42.0405 16.7086 42.0959 16.7017 42.151 16.7017C42.229 16.7017 42.3058 16.7154 42.3783 16.7406C42.5028 16.7839 42.6146 16.8626 42.6978 16.967C42.7899 17.083 42.8466 17.2314 42.8466 17.3996V17.8211V18.0393V20.4329V21.5822V22.8257V23.0328V23.4564C42.7613 23.4089 42.6662 23.385 42.5707 23.385C42.4738 23.385 42.377 23.4093 42.2896 23.4594L37.8874 25.9788V25.699L32.6252 28.8119V29.5937L36.9417 27.0875C36.8765 27.2694 36.8394 27.4546 36.8394 27.6284V28.8782L36.711 28.9522L35.9795 29.3759L35.8008 29.4798L35.361 29.7344L35.1819 29.838L34.5864 30.1829L34.4077 30.2864L33.7986 30.6394L33.6195 30.743L32.888 31.1666L32.7093 31.2701L32.0998 31.6232C32.0929 31.627 32.0865 31.6309 32.0797 31.6343C32.0059 31.6741 31.9291 31.6989 31.8528 31.7104C31.8195 31.7151 31.7863 31.7177 31.7534 31.7177" fill="url(#paint39_linear_441_1794)"/>
<path d="M31.4899 31.206V24.5209C31.4899 23.8075 31.8662 23.147 32.4797 22.7835L42.256 16.9911C42.3744 16.9214 42.5005 16.891 42.6228 16.8931C42.4095 16.6994 42.0811 16.6403 41.7981 16.808L32.0218 22.6004C31.4083 22.964 31.032 23.6244 31.032 24.3378V31.0225C31.032 31.4245 31.3578 31.7132 31.7165 31.7201C31.5797 31.5956 31.4899 31.4164 31.4899 31.206Z" fill="#7980E1"/>
<path d="M32.6123 24.2234L41.9376 18.8237V19.6657L32.6123 25.0075V24.2234Z" fill="white"/>
<path d="M32.6123 25.7558L41.9376 20.3561V21.1986L32.6123 26.54V25.7558" fill="white"/>
<path d="M32.6123 27.2888L41.9376 21.8891V22.7316L32.6123 28.0729V27.2888" fill="white"/>
<path d="M32.6123 28.8203L37.8808 25.6943V26.5373L32.6123 29.6054V28.8203Z" fill="white"/>
<path d="M36.8394 28.8783V27.6284C36.8394 27.4547 36.8765 27.2694 36.9417 27.0876L37.8873 26.5386V25.9789L42.2896 23.4595C42.377 23.4094 42.4738 23.385 42.5707 23.385C42.6662 23.385 42.7613 23.409 42.8466 23.4565V24.2327C42.8466 24.2776 42.8453 24.323 42.8424 24.3675L38.7438 26.7132C38.2418 26.9986 37.8315 27.7063 37.8315 28.2848V28.3036L37.5094 28.4902L37.3303 28.5937L36.8901 28.8488L36.8394 28.8783" fill="url(#paint40_linear_441_1794)"/>
<path d="M36.9333 27.0688C37.086 26.6439 37.3936 26.2369 37.7456 26.0365L37.8816 25.9589V26.5192L36.9333 27.0688" fill="#B4C2D3"/>
<path d="M43.2675 36.2181L42.6916 35.8377C42.5453 35.75 42.4647 35.6281 42.4647 35.4732V34.9387V34.7312V34.3555V34.1797V33.9721V33.5134V33.2644V31.6388V31.3864V31.383V30.7942V30.5871V30.2251V30.214V30.1951C42.4647 29.6166 42.875 28.9089 43.3771 28.6235L47.4756 26.2778L47.5085 26.259L47.9145 26.0266C48.0024 25.9761 48.0996 25.9513 48.1964 25.9513C48.2532 25.9513 48.3095 25.9599 48.3641 25.977C48.4212 25.9945 48.4758 26.0215 48.5257 26.057L48.55 26.0758L49.032 26.4511C48.9531 26.392 48.8567 26.3612 48.748 26.3612C48.6268 26.3612 48.4908 26.3997 48.347 26.4815L43.9525 28.9842C43.4509 29.2696 43.0401 29.9773 43.0401 30.5559V35.655C43.0401 35.9208 43.1263 36.1142 43.2675 36.2181Z" fill="url(#paint41_linear_441_1794)"/>
<path d="M43.5449 36.3049C43.4391 36.3049 43.3449 36.2749 43.2673 36.218C43.1261 36.114 43.0399 35.9206 43.0399 35.6549V30.5557C43.0399 29.9772 43.4507 29.2695 43.9523 28.9841L48.3468 26.4813C48.4906 26.3996 48.6266 26.3611 48.7478 26.3611C48.8565 26.3611 48.9529 26.3919 49.0318 26.451C49.1397 26.531 49.2152 26.6628 49.2451 26.8386C49.254 26.893 49.2592 26.9516 49.2592 27.0145V27.0543V27.5232V29.3234V29.3461V29.5031V30.2596V30.4667V31.0089V31.2164V32.0529C49.2592 32.3918 49.1188 32.776 48.9022 33.0944C49.1158 32.7778 49.2536 32.3974 49.2536 32.061V28.9824L46.6936 30.5035C46.5213 30.6058 46.3677 30.7316 46.2363 30.8754C46.163 30.9554 46.0969 31.0409 46.0376 31.1312C46.0141 31.1672 45.9915 31.204 45.9702 31.2412C45.9595 31.26 45.9493 31.2789 45.939 31.2981C45.919 31.3362 45.9002 31.3751 45.8823 31.4145C45.8648 31.4539 45.8486 31.4937 45.8333 31.5343C45.7501 31.7572 45.7057 31.9964 45.7057 32.2416V35.1633L45.2459 35.4298L43.9484 36.1812C43.8038 36.2651 43.6665 36.3049 43.5449 36.3049" fill="url(#paint42_linear_441_1794)"/>
<path d="M44.5718 31.9779C44.8039 31.8415 44.9935 31.9531 44.9935 32.2264C44.9935 32.4992 44.8039 32.8345 44.5718 32.9714C44.3401 33.1078 44.1505 32.9962 44.1505 32.7229C44.1505 32.4496 44.3401 32.1147 44.5718 31.9779Z" fill="white"/>
<path d="M45.7092 35.1443V32.2226C45.7092 31.9775 45.7535 31.7383 45.8367 31.5153C45.8521 31.4747 45.8683 31.4349 45.8857 31.3955C45.9037 31.3562 45.9224 31.3172 45.9425 31.2791C45.9527 31.2599 45.963 31.2411 45.9736 31.2222C45.9949 31.185 46.0175 31.1482 46.041 31.1123C46.1003 31.022 46.1664 30.9364 46.2398 30.8564C46.3711 30.7126 46.5247 30.5868 46.697 30.4845L49.2571 28.9634V32.0421C49.2571 32.3784 49.1193 32.7588 48.9056 33.0754C48.8147 33.2089 48.7102 33.3309 48.5972 33.4332C48.5196 33.5033 48.4381 33.5641 48.3541 33.6129L48.0231 33.8046L46.0299 34.9586L45.7092 35.1443V35.1443ZM46.4953 30.9077C46.436 30.9077 46.369 30.9274 46.2982 30.9681C46.0542 31.1097 45.8546 31.4563 45.8546 31.7391C45.8546 31.9398 45.9553 32.0562 46.1011 32.0562C46.1604 32.0562 46.2278 32.0369 46.2982 31.9963C46.5422 31.8547 46.7418 31.5076 46.7418 31.2252C46.7418 31.0245 46.6411 30.9077 46.4953 30.9077ZM48.2214 29.9193C48.1621 29.9193 48.0952 29.939 48.0244 29.9796C47.7804 30.1208 47.5808 30.4679 47.5808 30.7507C47.5808 30.9514 47.6814 31.0678 47.8273 31.0678C47.8866 31.0678 47.9536 31.0485 48.0244 31.0074C48.2684 30.8662 48.468 30.5192 48.468 30.2368C48.468 30.0361 48.3673 29.9193 48.2214 29.9193Z" fill="url(#paint43_linear_441_1794)"/>
<path d="M46.0844 32.0784C45.9371 32.0784 45.8355 31.9606 45.8355 31.7574C45.8355 31.471 46.037 31.1201 46.2833 30.9767C46.3548 30.9356 46.4224 30.9157 46.4823 30.9157C46.6295 30.9157 46.7312 31.0339 46.7312 31.2371C46.7312 31.523 46.5296 31.8744 46.2833 32.0178C46.2123 32.0589 46.1443 32.0784 46.0844 32.0784Z" fill="#D8C2C3"/>
<path d="M47.8234 31.0743C47.6761 31.0743 47.5745 30.9565 47.5745 30.7533C47.5745 30.467 47.776 30.1156 48.0223 29.9726C48.0938 29.9315 48.1614 29.9116 48.2213 29.9116C48.3686 29.9116 48.4702 30.0298 48.4702 30.233C48.4702 30.5189 48.2687 30.8703 48.0223 31.0133C47.9509 31.0548 47.8833 31.0743 47.8234 31.0743Z" fill="#D8C2C3"/>
<path d="M47.7174 31.2104L57.4705 25.4159C57.9336 25.1408 58.5188 25.4758 58.5188 26.0152V31.4898C58.5188 32.2117 58.1347 32.8783 57.512 33.2395L47.7716 38.8808C47.3089 39.1491 46.73 38.8136 46.73 38.2775V32.9485C46.73 32.2348 47.1051 31.5741 47.7174 31.2104Z" fill="url(#paint44_linear_441_1794)"/>
<path d="M47.1868 38.4608V33.1319C47.1868 32.4181 47.5625 31.7575 48.1743 31.3938L57.9276 25.5994C58.0457 25.5289 58.1714 25.4986 58.2934 25.5013C58.0808 25.3075 57.7529 25.2478 57.4709 25.4159L47.7175 31.2102C47.1057 31.5739 46.73 32.2345 46.73 32.9483V38.2772C46.73 38.679 47.0553 38.9683 47.413 38.9747C47.2765 38.8506 47.1868 38.6713 47.1868 38.4608" fill="url(#paint45_linear_441_1794)"/>
<path d="M51.6226 31.1807L57.5929 27.6306V28.4699L51.6226 31.9624V31.1807" fill="white"/>
<path d="M51.6226 32.5651L57.5929 29.1583V29.9978L51.6226 33.3469V32.5651Z" fill="white"/>
<path d="M51.6234 34.0924L54.6086 32.2601V33.0996L51.6234 34.8741V34.0924" fill="white"/>
<path d="M48.9702 34.2888C48.8508 34.1921 48.7783 34.0194 48.7792 33.7846C48.7805 33.257 49.1465 32.6108 49.593 32.3479C50.0395 32.0854 50.4046 32.3012 50.4046 32.8283C50.4046 33.1871 50.2347 33.6011 49.9848 33.9123C50.4279 34.1247 50.7338 34.5828 50.7338 35.1129V35.4432L48.3102 36.8872V36.2172C48.3102 35.5101 48.5475 34.8319 48.9702 34.2888" fill="white"/>
<path d="M36.7496 34.2418C36.5643 34.2418 36.3868 34.1656 36.2575 34.0372C36.24 34.0197 36.2234 34.0013 36.2078 33.982C36.1128 33.8652 36.0541 33.7146 36.0541 33.5439V33.3791V33.172V32.3248V32.128V31.0707V30.2482V30.0681V29.407V29.2765V29.069V28.6672V28.4597V28.2149C36.0541 27.5012 36.4294 26.8405 37.0415 26.4768L37.0547 26.4691L44.4692 22.064L46.7947 20.6823C46.9081 20.6147 47.0293 20.5839 47.1474 20.5839C47.5096 20.5839 47.8431 20.8744 47.8431 21.2818V23.6647V24.0524V25.3617V25.5693V25.9248C47.7501 25.8658 47.6443 25.8358 47.5381 25.8358C47.4413 25.8358 47.3441 25.8602 47.2566 25.9103L42.8834 28.4134V28.2226L37.6212 31.3359L37.6213 32.1177L41.8729 29.6492C41.8303 29.7947 41.8068 29.9406 41.8068 30.0792V31.3402L42.7209 30.8109V30.8892L37.0958 34.1472C36.9839 34.2122 36.8652 34.2418 36.7496 34.2418" fill="url(#paint46_linear_441_1794)"/>
<path d="M36.4943 33.7335V28.3925C36.4943 27.6772 36.8706 27.015 37.4841 26.6504L47.2607 20.8424C47.3787 20.7721 47.5049 20.7416 47.6271 20.7442C47.4138 20.5499 47.0854 20.4903 46.8028 20.6584L37.0262 26.4664C36.4127 26.831 36.0364 27.4932 36.0364 28.2086V33.5499C36.0364 33.9527 36.3622 34.2426 36.7209 34.249C36.584 34.1246 36.4943 33.9449 36.4943 33.7335Z" fill="#FFC961"/>
<path d="M42.2004 25.7443L46.8894 22.8855V23.7319L42.2004 26.5324V25.7443Z" fill="white"/>
<path d="M37.6166 28.2884L41.568 26.0035V26.8097L37.6167 29.069L37.6166 28.2884Z" fill="white"/>
<path d="M37.6166 29.8178L46.8893 24.4181V25.2602L37.6167 30.6019L37.6166 29.8178Z" fill="white"/>
<path d="M37.6166 31.3499L42.8852 28.2237V29.0672L37.6167 32.1349L37.6166 31.3499" fill="white"/>
<path d="M41.8077 31.3397V30.0787C41.8077 29.9401 41.8311 29.7942 41.8738 29.6487L42.8842 29.0621V28.4129L47.2575 25.9098C47.3449 25.8597 47.4422 25.8353 47.539 25.8353C47.6452 25.8353 47.751 25.8653 47.8439 25.9243V26.0749V26.282V26.7091L43.6341 29.1181C43.1321 29.4039 42.7217 30.1112 42.7217 30.6902V30.8104L41.8077 31.3397" fill="url(#paint47_linear_441_1794)"/>
<defs>
<linearGradient id="paint0_linear_441_1794" x1="38.0394" y1="71.202" x2="44.704" y2="-0.512696" gradientUnits="userSpaceOnUse">
<stop stop-color="#C5C2C6"/>
<stop offset="0.914089" stop-color="#DBCFC9"/>
<stop offset="1" stop-color="#DBCFC9"/>
</linearGradient>
<linearGradient id="paint1_linear_441_1794" x1="155.447" y1="138.819" x2="125.88" y2="27.7875" gradientUnits="userSpaceOnUse">
<stop offset="0.612878" stop-color="#524BCE" stop-opacity="0"/>
<stop offset="0.922219" stop-color="#5AA0F1"/>
<stop offset="1" stop-color="#5AA0F1"/>
</linearGradient>
<radialGradient id="paint2_radial_441_1794" cx="0" cy="0" r="1" gradientUnits="userSpaceOnUse" gradientTransform="translate(30.9565 25.6769) rotate(147.342) scale(14.444 3.83815)">
<stop stop-color="#0E5FD8"/>
<stop offset="1" stop-color="#DEECFC"/>
</radialGradient>
<radialGradient id="paint3_radial_441_1794" cx="0" cy="0" r="1" gradientUnits="userSpaceOnUse" gradientTransform="translate(30.9565 25.6768) rotate(147.342) scale(14.4441 3.83816)">
<stop stop-color="#1067DB"/>
<stop offset="1" stop-color="white"/>
</radialGradient>
<radialGradient id="paint4_radial_441_1794" cx="0" cy="0" r="1" gradientUnits="userSpaceOnUse" gradientTransform="translate(30.9558 25.677) rotate(147.342) scale(14.444 3.83816)">
<stop stop-color="#1053A2"/>
<stop offset="1" stop-color="#FFCEBD"/>
</radialGradient>
<radialGradient id="paint5_radial_441_1794" cx="0" cy="0" r="1" gradientUnits="userSpaceOnUse" gradientTransform="translate(30.9578 25.6772) rotate(147.342) scale(14.444 3.83815)">
<stop stop-color="#0E488A"/>
<stop offset="1" stop-color="#DBB2A1"/>
</radialGradient>
<radialGradient id="paint6_radial_441_1794" cx="0" cy="0" r="1" gradientUnits="userSpaceOnUse" gradientTransform="translate(30.9573 25.6768) rotate(147.342) scale(14.444 3.83816)">
<stop stop-color="#1053A2"/>
<stop offset="1" stop-color="#FFCEBD"/>
</radialGradient>
<radialGradient id="paint7_radial_441_1794" cx="0" cy="0" r="1" gradientUnits="userSpaceOnUse" gradientTransform="translate(34.3531 20.1131) rotate(141.98) scale(24.5839 6.97721)">
<stop stop-color="#0E488A"/>
<stop offset="1" stop-color="#DBB2A1"/>
</radialGradient>
<radialGradient id="paint8_radial_441_1794" cx="0" cy="0" r="1" gradientUnits="userSpaceOnUse" gradientTransform="translate(30.9576 25.6769) rotate(147.342) scale(14.444 3.83815)">
<stop stop-color="#105BB9"/>
<stop offset="1" stop-color="#FFE2D7"/>
</radialGradient>
<radialGradient id="paint9_radial_441_1794" cx="0" cy="0" r="1" gradientUnits="userSpaceOnUse" gradientTransform="translate(30.9575 25.6776) rotate(147.342) scale(14.444 3.83815)">
<stop stop-color="#105BB9"/>
<stop offset="1" stop-color="#FFE2D7"/>
</radialGradient>
<radialGradient id="paint10_radial_441_1794" cx="0" cy="0" r="1" gradientUnits="userSpaceOnUse" gradientTransform="translate(37.3275 28.2649) rotate(147.342) scale(14.444 3.83815)">
<stop stop-color="#1053A2"/>
<stop offset="1" stop-color="#FFCEBD"/>
</radialGradient>
<radialGradient id="paint11_radial_441_1794" cx="0" cy="0" r="1" gradientUnits="userSpaceOnUse" gradientTransform="translate(37.3288 28.2652) rotate(147.342) scale(14.444 3.83815)">
<stop stop-color="#0E488A"/>
<stop offset="1" stop-color="#DBB2A1"/>
</radialGradient>
<radialGradient id="paint12_radial_441_1794" cx="0" cy="0" r="1" gradientUnits="userSpaceOnUse" gradientTransform="translate(37.3286 28.2654) rotate(147.342) scale(14.444 3.83815)">
<stop stop-color="#1053A2"/>
<stop offset="1" stop-color="#FFCEBD"/>
</radialGradient>
<radialGradient id="paint13_radial_441_1794" cx="0" cy="0" r="1" gradientUnits="userSpaceOnUse" gradientTransform="translate(37.3294 28.2656) rotate(147.342) scale(14.4441 3.83816)">
<stop stop-color="#105BB9"/>
<stop offset="1" stop-color="#FFE2D7"/>
</radialGradient>
<radialGradient id="paint14_radial_441_1794" cx="0" cy="0" r="1" gradientUnits="userSpaceOnUse" gradientTransform="translate(37.3285 28.2651) rotate(147.342) scale(14.444 3.83816)">
<stop stop-color="#105BB9"/>
<stop offset="1" stop-color="#FFE2D7"/>
</radialGradient>
<radialGradient id="paint15_radial_441_1794" cx="0" cy="0" r="1" gradientUnits="userSpaceOnUse" gradientTransform="translate(43.6281 30.7888) rotate(147.342) scale(14.444 3.83815)">
<stop stop-color="#1053A2"/>
<stop offset="1" stop-color="#FFCEBD"/>
</radialGradient>
<radialGradient id="paint16_radial_441_1794" cx="0" cy="0" r="1" gradientUnits="userSpaceOnUse" gradientTransform="translate(43.6272 30.7888) rotate(147.342) scale(14.444 3.83815)">
<stop stop-color="#105BB9"/>
<stop offset="1" stop-color="#FFE2D7"/>
</radialGradient>
<radialGradient id="paint17_radial_441_1794" cx="0" cy="0" r="1" gradientUnits="userSpaceOnUse" gradientTransform="translate(43.6279 30.7892) rotate(147.342) scale(14.444 3.83816)">
<stop stop-color="#0E488A"/>
<stop offset="1" stop-color="#DBB2A1"/>
</radialGradient>
<radialGradient id="paint18_radial_441_1794" cx="0" cy="0" r="1" gradientUnits="userSpaceOnUse" gradientTransform="translate(43.6279 30.7887) rotate(147.342) scale(14.444 3.83815)">
<stop stop-color="#0E488A"/>
<stop offset="1" stop-color="#DBB2A1"/>
</radialGradient>
<radialGradient id="paint19_radial_441_1794" cx="0" cy="0" r="1" gradientUnits="userSpaceOnUse" gradientTransform="translate(48.3402 34.786) rotate(147.342) scale(14.444 3.83816)">
<stop stop-color="#0E5FD8"/>
<stop offset="1" stop-color="#DEECFC"/>
</radialGradient>
<radialGradient id="paint20_radial_441_1794" cx="0" cy="0" r="1" gradientUnits="userSpaceOnUse" gradientTransform="translate(48.34 34.7854) rotate(147.342) scale(14.444 3.83815)">
<stop stop-color="#0B56D6"/>
<stop offset="1" stop-color="#B6D5F9"/>
</radialGradient>
<radialGradient id="paint21_radial_441_1794" cx="0" cy="0" r="1" gradientUnits="userSpaceOnUse" gradientTransform="translate(48.3398 34.7859) rotate(147.342) scale(14.444 3.83816)">
<stop stop-color="#0E488A"/>
<stop offset="1" stop-color="#DBB2A1"/>
</radialGradient>
<radialGradient id="paint22_radial_441_1794" cx="0" cy="0" r="1" gradientUnits="userSpaceOnUse" gradientTransform="translate(61.8399 33.0691) rotate(149.928) scale(15.9378 4.23618)">
<stop stop-color="#0E5FD8"/>
<stop offset="1" stop-color="#DEECFC"/>
</radialGradient>
<linearGradient id="paint23_linear_441_1794" x1="18.4999" y1="9.96925" x2="3.51311" y2="9.96925" gradientUnits="userSpaceOnUse">
<stop stop-color="#4A65A3"/>
<stop offset="0.3998" stop-color="#445C95"/>
<stop offset="1" stop-color="#3C5185"/>
</linearGradient>
<linearGradient id="paint24_linear_441_1794" x1="4.29323" y1="19.9451" x2="18.4958" y2="0.156881" gradientUnits="userSpaceOnUse">
<stop stop-color="#4A65A3"/>
<stop offset="0.3998" stop-color="#445C95"/>
<stop offset="1" stop-color="#3C5185"/>
</linearGradient>
<linearGradient id="paint25_linear_441_1794" x1="13.1456" y1="11.541" x2="9.7961" y2="8.17319" gradientUnits="userSpaceOnUse">
<stop offset="0.1499" stop-color="#FF9800"/>
<stop offset="1" stop-color="#FFC107"/>
</linearGradient>
<linearGradient id="paint26_linear_441_1794" x1="12.909" y1="10.7884" x2="29.021" y2="10.7884" gradientUnits="userSpaceOnUse">
<stop stop-color="#00A5CF"/>
<stop offset="1" stop-color="#7AE582"/>
</linearGradient>
<linearGradient id="paint27_linear_441_1794" x1="12.909" y1="10.7883" x2="28.7124" y2="10.7883" gradientUnits="userSpaceOnUse">
<stop stop-color="#0083B3"/>
<stop offset="0.19244" stop-color="#0083B3"/>
<stop offset="0.591791" stop-color="#0083B3"/>
<stop offset="1" stop-color="#7AE582"/>
</linearGradient>
<linearGradient id="paint28_linear_441_1794" x1="30.9319" y1="20.7027" x2="17.8016" y2="20.9429" gradientUnits="userSpaceOnUse">
<stop stop-color="#FFC107"/>
<stop offset="0.8501" stop-color="#FF9800"/>
</linearGradient>
<linearGradient id="paint29_linear_441_1794" x1="31.6587" y1="20.7664" x2="18.7753" y2="21.002" gradientUnits="userSpaceOnUse">
<stop offset="0.1499" stop-color="#FF9800"/>
<stop offset="1" stop-color="#FFC107"/>
</linearGradient>
<linearGradient id="paint30_linear_441_1794" x1="29.6619" y1="17.8121" x2="20.0549" y2="17.9878" gradientUnits="userSpaceOnUse">
<stop stop-color="#F4F9FD"/>
<stop offset="0.2091" stop-color="#E6F1FA"/>
<stop offset="0.8511" stop-color="#B2D2F1"/>
<stop offset="0.9962" stop-color="#A5CBEF"/>
</linearGradient>
<linearGradient id="paint31_linear_441_1794" x1="30.8116" y1="16.1888" x2="21.208" y2="16.3644" gradientUnits="userSpaceOnUse">
<stop stop-color="#F4F9FD"/>
<stop offset="0.2091" stop-color="#E6F1FA"/>
<stop offset="0.8511" stop-color="#B2D2F1"/>
<stop offset="0.9962" stop-color="#A5CBEF"/>
</linearGradient>
<linearGradient id="paint32_linear_441_1794" x1="33.0018" y1="21.159" x2="21.779" y2="21.3642" gradientUnits="userSpaceOnUse">
<stop stop-color="#FFC107"/>
<stop offset="0.8501" stop-color="#FF9800"/>
</linearGradient>
<linearGradient id="paint33_linear_441_1794" x1="33.1183" y1="21.2944" x2="22.8746" y2="21.4817" gradientUnits="userSpaceOnUse">
<stop offset="0.1499" stop-color="#FF9800"/>
<stop offset="1" stop-color="#FFC107"/>
</linearGradient>
<linearGradient id="paint34_linear_441_1794" x1="26.7657" y1="23.5233" x2="33.3454" y2="23.5233" gradientUnits="userSpaceOnUse">
<stop stop-color="#0083B3"/>
<stop offset="0.19244" stop-color="#0083B3"/>
<stop offset="0.591791" stop-color="#0083B3"/>
<stop offset="1" stop-color="#7AE582"/>
</linearGradient>
<linearGradient id="paint35_linear_441_1794" x1="27.7844" y1="31.3558" x2="32.3656" y2="18.3324" gradientUnits="userSpaceOnUse">
<stop stop-color="#00A5CF"/>
<stop offset="1" stop-color="#7AE582"/>
</linearGradient>
<linearGradient id="paint36_linear_441_1794" x1="27.7863" y1="31.3566" x2="32.3675" y2="18.3333" gradientUnits="userSpaceOnUse">
<stop stop-color="#068CA6"/>
<stop offset="1" stop-color="#5BB870"/>
</linearGradient>
<linearGradient id="paint37_linear_441_1794" x1="31.9158" y1="19.306" x2="34.3708" y2="19.306" gradientUnits="userSpaceOnUse">
<stop stop-color="#FD696D"/>
<stop offset="1" stop-color="#FF99CF"/>
</linearGradient>
<linearGradient id="paint38_linear_441_1794" x1="32.3609" y1="19.4755" x2="34.7744" y2="19.4755" gradientUnits="userSpaceOnUse">
<stop stop-color="#FD696D"/>
<stop offset="1" stop-color="#FF99CF"/>
</linearGradient>
<linearGradient id="paint39_linear_441_1794" x1="31.0577" y1="24.2099" x2="42.8466" y2="24.2099" gradientUnits="userSpaceOnUse">
<stop stop-color="#5AA0F1"/>
<stop offset="1" stop-color="#524BCE"/>
</linearGradient>
<linearGradient id="paint40_linear_441_1794" x1="31.0577" y1="24.21" x2="42.8466" y2="24.21" gradientUnits="userSpaceOnUse">
<stop stop-color="#417FC9"/>
<stop offset="1" stop-color="#3C44B1"/>
</linearGradient>
<linearGradient id="paint41_linear_441_1794" x1="42.4647" y1="31.0959" x2="49.0445" y2="31.0959" gradientUnits="userSpaceOnUse">
<stop stop-color="#FD696D"/>
<stop offset="1" stop-color="#FF99CF"/>
</linearGradient>
<linearGradient id="paint42_linear_441_1794" x1="43.4852" y1="38.9278" x2="48.0664" y2="25.9045" gradientUnits="userSpaceOnUse">
<stop stop-color="#FD696D"/>
<stop offset="1" stop-color="#FF99CF"/>
</linearGradient>
<linearGradient id="paint43_linear_441_1794" x1="43.4886" y1="38.9089" x2="48.0699" y2="25.8855" gradientUnits="userSpaceOnUse">
<stop stop-color="#D7595D"/>
<stop offset="1" stop-color="#D87BA1"/>
</linearGradient>
<linearGradient id="paint44_linear_441_1794" x1="50.4046" y1="29.678" x2="62.8937" y2="29.678" gradientUnits="userSpaceOnUse">
<stop stop-color="#00A5CF"/>
<stop offset="1" stop-color="#7AE582"/>
</linearGradient>
<linearGradient id="paint45_linear_441_1794" x1="50.2041" y1="29.8122" x2="62.4165" y2="29.8122" gradientUnits="userSpaceOnUse">
<stop stop-color="#0083B3"/>
<stop offset="0.19244" stop-color="#0083B3"/>
<stop offset="0.591791" stop-color="#0083B3"/>
<stop offset="1" stop-color="#7AE582"/>
</linearGradient>
<linearGradient id="paint46_linear_441_1794" x1="36.0541" y1="27.413" x2="47.8429" y2="27.413" gradientUnits="userSpaceOnUse">
<stop stop-color="#FD696D"/>
<stop offset="0.983065" stop-color="#FEBB39"/>
<stop offset="1" stop-color="#FEBB39"/>
</linearGradient>
<linearGradient id="paint47_linear_441_1794" x1="36.0549" y1="27.4125" x2="47.8438" y2="27.4125" gradientUnits="userSpaceOnUse">
<stop stop-color="#D76655"/>
<stop offset="0.983065" stop-color="#D89F31"/>
<stop offset="1" stop-color="#D89F31"/>
</linearGradient>
</defs>
</svg>
