<svg width="159" height="109" viewBox="0 0 159 109" fill="none" xmlns="http://www.w3.org/2000/svg">
<path d="M108.342 42.2933C105.145 43.3597 91.4809 48.6989 88.3199 48.6859C85.2219 48.6746 82.6051 46.2282 79.4522 47.5862C76.5319 48.9344 74.6214 52.3055 74.4834 56.3537C74.4248 59.02 75.5119 61.9866 77.4519 63.3588C82.3955 66.8547 85.9649 59.7781 84.56 51.9208C82.7633 41.8721 71.1712 34.769 56.5184 35.4592C38.598 36.3043 18.3043 56.4163 17.2867 91.5567" stroke="white" stroke-width="1.36007" stroke-dasharray="2.84 2.84"/>
<g opacity="0.96">
<path d="M144.733 16.1324C139.455 8.53153 130.731 9.68951 130.731 9.68951C130.731 9.68951 124.493 15.5123 123.408 17.7963C118.377 28.397 135.536 61.6631 135.536 61.6631C135.536 61.6631 137.316 61.8122 139.215 61.1416C141.358 60.3845 145.605 57.5714 147.806 52.9336C152.839 42.3289 151.461 25.8229 144.733 16.1324Z" fill="url(#paint0_linear_441_2376)"/>
<path d="M142.291 16.4424C135.566 6.75561 125.999 7.50068 120.969 18.1055C115.935 28.7056 117.312 45.2172 124.038 54.9021C128.011 60.6264 132.977 62.7087 137.413 61.2692C137.853 61.1251 138.287 60.9494 138.717 60.7358C141.279 59.4662 143.601 56.9597 145.365 53.243C150.399 42.6381 149.018 26.1312 142.291 16.4424Z" fill="url(#paint1_linear_441_2376)"/>
<path d="M139.333 18.4963C137.453 15.7882 135.337 14.0449 133.215 13.4549C128.389 12.1128 125.318 17.3399 124.222 19.65C119.759 29.052 121.03 44.2559 126.997 52.8489C128.877 55.5579 130.993 57.3017 133.116 57.8921C137.943 59.2343 141.014 54.0074 142.11 51.6987C146.573 42.2961 145.301 27.0916 139.333 18.4963Z" fill="url(#paint2_linear_441_2376)"/>
<path d="M136.374 20.5506C135.019 18.598 133.516 17.2774 132.25 16.9255C131.866 16.8187 131.066 16.5963 129.796 17.7987C128.676 18.8591 127.862 20.3817 127.476 21.1945C123.567 29.4307 124.726 43.2627 129.955 50.7942C131.311 52.7471 132.816 54.0694 134.082 54.4215C134.467 54.5285 135.266 54.7504 136.536 53.5484C137.656 52.4884 138.47 50.9666 138.856 50.1529C142.765 41.9181 141.605 28.0848 136.374 20.5506Z" fill="url(#paint3_linear_441_2376)"/>
<path d="M133.187 22.763C133.164 22.7304 133.141 22.6983 133.119 22.6654C132.575 21.8963 131.394 21.9887 130.989 22.8388C130.986 22.8457 130.984 22.8514 130.98 22.8579C127.644 29.8867 128.675 42.148 133.142 48.582C133.166 48.6162 133.189 48.6498 133.213 48.6831C133.757 49.4519 134.937 49.3596 135.342 48.5095C135.345 48.5034 135.348 48.4969 135.351 48.4909C138.687 41.4617 137.656 29.1991 133.187 22.763Z" fill="url(#paint4_linear_441_2376)"/>
<path d="M133.39 30.9223C133.263 30.1526 132.122 30.2439 132.128 31.0232C132.155 34.1551 132.43 37.3434 132.941 40.434C133.068 41.2033 134.209 41.1129 134.203 40.3322C134.176 37.2017 133.901 34.0129 133.39 30.9223Z" fill="url(#paint5_linear_441_2376)"/>
<path d="M132.743 34.8721C132.367 34.9491 132.125 35.3155 132.202 35.6913L137.413 61.2692C137.853 61.1251 138.287 60.9494 138.717 60.7359L133.559 35.4129C133.482 35.0376 133.117 34.7978 132.743 34.8721Z" fill="url(#paint6_linear_441_2376)"/>
<path d="M133.684 35.3396C133.567 34.8947 133.111 34.6311 132.668 34.7473L112.927 39.9588L108.936 38.9154L103.938 40.2352L107.432 42.2697L105.398 45.7644L110.395 44.445L113.352 41.5672L133.092 36.3559C133.536 36.2377 133.801 35.7834 133.684 35.3396Z" fill="url(#paint7_linear_441_2376)"/>
</g>
<path d="M48.1195 101.951H59.0883C59.5161 98.1226 59.8412 94.9399 59.9744 93.0368C60.6003 84.1121 60.2334 72.2365 61.064 71.0022C61.8945 69.768 58.8223 62.7831 58.8223 62.7831L51.5738 64.5079L48.1706 76.8387C48.1706 76.8387 47.8337 96.5296 48.0386 100.151C48.0577 100.491 48.0846 101.109 48.1195 101.951Z" fill="url(#paint8_linear_441_2376)"/>
<path d="M47.0412 101.951C47.6021 98.7409 48.1107 96.1389 48.5082 94.6313C50.5566 86.8703 54.5213 62.8681 54.5213 62.8681L36.9128 64.5079C35.9113 71.1023 35.2566 77.742 34.9514 84.4011C35.1037 84.5066 35.2017 84.6707 35.2203 84.8514C35.2389 85.0322 35.1762 85.2119 35.0483 85.3445C35.0026 85.3925 34.9564 85.4388 34.9109 85.4858C34.8704 86.6913 34.8452 87.9044 34.8402 89.114C34.8281 92.1184 34.8948 96.7257 35.0016 101.951H47.0412Z" fill="url(#paint9_linear_441_2376)"/>
<path d="M66.156 41.711C66.156 41.711 66.35 43.928 65.186 45.1752C64.0221 46.4225 62.7615 48.8711 62.7615 48.8711C61.9152 48.0487 61.1304 47.1686 60.4133 46.2377C59.5887 45.0831 56.9414 40.3726 56.8929 37.9713C56.8445 35.5699 60.9662 31.967 60.9662 31.967C60.9662 31.967 63.2457 35.8469 63.4395 38.0627C63.6333 40.2785 66.156 41.711 66.156 41.711Z" fill="url(#paint10_linear_441_2376)"/>
<path d="M67.9981 40.187C67.6103 41.2955 67.6103 42.4501 67.6103 43.9743C67.6103 45.4984 67.7556 48.1311 66.8341 48.7776C65.9126 49.4242 64.6036 50.6714 63.4881 49.6553C62.3726 48.6392 61.7907 47.0226 61.6454 45.4984C61.5 43.9743 63.294 41.7575 64.1184 40.4181L67.9981 40.187Z" fill="#FEC4AD"/>
<path d="M60.4134 46.2368C60.4134 46.2368 61.2879 47.8738 63.4883 49.6552C65.6887 51.4366 67.3566 50.5432 67.9983 49.6552C68.64 48.7672 67.9983 42.3622 67.9983 42.3622C67.9983 42.3622 65.6704 42.7274 64.1176 40.4183L60.4134 46.2368Z" fill="url(#paint11_linear_441_2376)"/>
<path d="M65.4827 42.6759L67.9975 42.3623V40.187L65.4827 40.4179V42.6759Z" fill="url(#paint12_linear_441_2376)"/>
<path d="M42.9031 21.6291C42.5042 22.8067 38.7523 24.1752 38.7523 24.1752C38.7523 24.1752 50.0978 37.6844 54.4765 37.5989C58.8553 37.5135 52.5626 24.8598 52.5626 24.8598C52.5626 24.8598 51.2887 24.1958 50.8892 22.9114C50.4898 21.627 51.325 16.0969 51.325 16.0969L46.7045 13.1566C46.7045 13.1566 43.3023 20.452 42.9031 21.6291Z" fill="#FEC4AD"/>
<path style="mix-blend-mode:multiply" d="M42.9031 21.6291C42.5042 22.8067 38.7523 24.1752 38.7523 24.1752C38.7523 24.1752 50.0978 37.6844 54.4765 37.5989C58.8553 37.5135 52.5626 24.8598 52.5626 24.8598C52.5626 24.8598 51.2887 24.1958 50.8892 22.9114C50.4898 21.627 51.325 16.0969 51.325 16.0969L46.7045 13.1566C46.7045 13.1566 43.3023 20.452 42.9031 21.6291Z" fill="url(#paint13_linear_441_2376)"/>
<path d="M57.0272 5.70167C57.7225 6.39499 58.8724 7.78213 58.7666 8.57505C58.6608 9.36797 58.6925 11.8211 58.0745 13.0264C57.2183 14.7 57.3179 17.2631 56.763 18.7664C56.2081 20.2697 53.4278 22.5582 52.9846 22.7447C52.5414 22.9312 51.046 22.6312 50.3272 22.0487C49.6084 21.4663 45.8332 16.4541 46.7036 13.156C46.7036 13.156 45.0435 13.4876 44.473 10.1935C44.3247 9.33437 47.6431 6.97769 48.1664 6.14252C49.4376 4.10982 53.938 5.8351 55.2302 5.97045C56.5225 6.10581 57.0272 5.70167 57.0272 5.70167Z" fill="#FEC4AD"/>
<path d="M58.6176 9.88385C58.6176 9.88385 59.1861 7.85715 57.5238 7.63324L52.3368 6.53577C51.6378 6.32711 50.9536 6.07426 50.2887 5.77884C50.2887 5.77884 49.8581 7.83603 49.3412 8.29633C48.8244 8.75662 47.7707 9.20444 47.5737 9.85865C47.4471 10.2967 47.3536 10.7432 47.2939 11.1944C47.2939 11.1944 46.6242 9.80585 45.8355 9.85049C45.0468 9.89513 44.7899 11.1186 45.4153 11.8539C45.8133 12.3165 46.2435 12.7519 46.7031 13.1571C46.5833 13.7147 46.4089 14.2599 46.1823 14.7854C45.8595 15.4677 45.2601 16.6093 45.2601 16.6093C45.2601 16.6093 44.5455 11.995 43.5924 9.95393C42.6392 7.91282 42.6264 2.23925 48.3963 2.31821C48.3963 2.31821 52.1625 -0.681652 55.8932 0.143669C59.1248 0.858836 62.5475 3.61895 59.7534 8.15785C58.7859 9.73146 58.6176 9.88385 58.6176 9.88385Z" fill="url(#paint14_linear_441_2376)"/>
<path d="M52.5937 12.2747C52.7061 12.6229 52.912 12.9358 53.1904 13.1811C53.6761 13.6328 54.0511 13.6299 54.6314 13.0441C54.1598 12.4301 53.3686 12.1314 52.5937 12.2747Z" fill="white"/>
<path d="M53.4944 12.3781C53.3251 12.3121 53.2243 12.8449 53.251 12.9587C53.2812 13.2186 53.4983 13.4205 53.7671 13.4386C54.3514 13.5289 54.4755 12.7609 54.4755 12.7609L53.4944 12.3781Z" fill="#542F38"/>
<path opacity="0.35" d="M54.2251 12.8673C53.9757 12.8467 53.8111 13.1157 53.9629 13.2568C54.1146 13.3979 54.3316 13.4591 54.4009 13.242C54.4701 13.0248 54.4743 12.8882 54.2251 12.8673Z" fill="white"/>
<path d="M52.0937 12.3012C52.0937 12.3012 53.752 12.2256 54.9081 13.23C54.9786 13.0299 54.9048 12.8086 54.7269 12.6867C54.4424 12.4629 54.1089 12.3052 53.752 12.2256C52.3456 11.9024 52.0937 12.3012 52.0937 12.3012Z" fill="#782F38"/>
<path d="M55.3953 11.0946C55.5955 10.8572 55.6945 10.5545 55.6721 10.2484C54.4259 9.6854 52.9997 9.62856 51.7101 10.0905C51.7101 10.0905 51.4528 10.252 51.8624 10.2571C52.2719 10.2621 54.5329 10.1507 55.3953 11.0946Z" fill="#8E373F"/>
<path d="M57.6186 13.7058C57.6186 13.7058 57.6072 14.4911 57.1902 14.5832C56.638 14.7054 56.6081 14.091 56.6217 13.6746C56.9311 13.4927 57.3219 13.5049 57.6186 13.7058Z" fill="white"/>
<path d="M57.6211 13.8143C57.7535 13.8585 57.5894 14.2504 57.5252 14.3099C57.4622 14.3831 57.3718 14.4289 57.274 14.4372C57.1762 14.4456 57.079 14.4157 57.0039 14.3543C56.6056 14.1143 56.8555 13.5602 56.8555 13.5602L57.6211 13.8143Z" fill="#542F38"/>
<path opacity="0.35" d="M57.6099 14.0292C57.7958 14.1568 57.781 14.4458 57.6052 14.4611C57.4295 14.4765 57.2473 14.3961 57.3042 14.1998C57.361 14.0035 57.4243 13.9015 57.6099 14.0292Z" fill="white"/>
<path d="M57.7999 13.9002C57.9865 13.9115 57.9457 13.738 57.6432 13.5882C57.3624 13.4431 57.0498 13.3658 56.7318 13.3626C56.546 13.3533 56.3804 13.4755 56.34 13.6518C56.802 13.6392 57.2606 13.731 57.6797 13.9201C57.7178 13.905 57.7588 13.8982 57.7999 13.9002Z" fill="#782F38"/>
<path d="M58.5959 11.7207C57.7627 10.7962 57.187 10.7242 57.187 10.7242C57.0389 10.9569 56.9569 11.2236 56.9495 11.497C57.5357 11.6016 58.0943 11.8197 58.592 12.1383C58.6512 12.0053 58.6526 11.8547 58.5959 11.7207Z" fill="#8E373F"/>
<path d="M50.6251 11.3709C50.6117 11.5245 50.9031 11.7083 50.9464 11.7657C51.0411 11.8897 50.9795 11.8825 51.1113 13.0822C51.2086 13.9676 51.7705 14.5344 53.1999 14.7209C54.2915 14.8634 54.5572 13.8848 54.8128 13.4859C55.0683 13.087 55.1806 13.0573 55.343 13.1077C55.5014 13.1557 55.5691 13.2399 55.5958 13.7249C55.6225 14.21 55.2829 15.2421 56.3339 15.5947C57.0594 15.838 57.3288 15.7216 57.6827 15.1675C57.9714 14.7199 58.2105 14.244 58.3959 13.7475C58.5442 13.3342 58.6418 13.0868 58.47 12.9699C58.2044 12.8236 57.9192 12.7139 57.6224 12.6438C56.9877 12.4501 56.5613 12.2404 56.1319 12.3318C55.7026 12.4232 55.6682 12.6001 55.4861 12.5478C55.2997 12.494 55.343 12.3133 55.0201 11.9922C54.6973 11.6711 53.0049 11.1547 52.3704 10.9603C51.7359 10.7659 50.8255 10.5895 50.7333 10.8475C50.677 11.0174 50.6406 11.193 50.6251 11.3709ZM56.1023 13.0626C56.2726 12.7551 56.2793 12.8022 57.0828 12.9985C57.8864 13.1948 57.9467 13.2714 58.0357 13.4785C58.1247 13.6856 58.0075 14.2553 57.6402 14.8891C57.4425 15.2311 57.1745 15.6609 56.5314 15.4651C55.841 15.2544 55.8472 14.8202 55.8843 14.227C55.8953 13.8303 55.9688 13.4376 56.1023 13.0626ZM51.6622 11.3642C51.8372 11.2377 52.8811 11.6042 53.6609 11.8921C54.4408 12.1801 54.7008 12.2749 54.6991 12.6335C54.6352 13.0221 54.5096 13.3987 54.3268 13.7499C54.0742 14.2779 53.7758 14.6976 52.5278 14.3237C51.6474 14.0597 51.3661 13.5989 51.3295 12.7398C51.2969 11.9922 51.487 11.4902 51.6622 11.3642ZM47.1319 10.8868C47.1319 10.8868 47.5472 10.618 47.7093 10.6468C47.7835 10.6759 47.8512 10.7183 47.9091 10.7719L50.6382 11.463L51.5619 10.7589C51.5619 10.7589 49.2418 10.1455 48.1058 9.85991C47.5667 9.72456 46.797 10.4469 46.797 10.4469C46.9328 10.5747 47.046 10.7233 47.1319 10.8868Z" fill="#2F2521"/>
<path d="M55.566 13.4238C55.566 13.4238 55.8023 15.6058 56.2786 16.0558C56.8867 16.6318 56.6368 17.082 56.175 17.219C55.7133 17.356 54.6279 17.1523 54.6279 17.1523C54.6481 16.5204 54.7698 15.8954 54.9888 15.3001C55.23 14.6898 55.423 14.0626 55.566 13.4238Z" fill="#F49A8A"/>
<path d="M55.1431 18.0959C54.9995 18.5427 54.7188 18.9363 54.3385 19.2239C54.1513 19.3526 53.9306 19.4274 53.7015 19.4399C52.9373 19.4831 52.5418 19.0374 52.3336 18.5416C52.1798 18.1345 52.1049 17.7032 52.1127 17.2697C52.6599 17.5793 53.2521 17.807 53.8694 17.945C54.8484 18.1468 55.1431 18.0959 55.1431 18.0959Z" fill="#542F38"/>
<path d="M54.3392 19.2238C54.152 19.3525 53.9313 19.4273 53.7022 19.4397C52.938 19.4829 52.5425 19.0373 52.3344 18.5415C52.5284 18.427 53.7017 19.4397 54.3392 19.2238Z" fill="#C85A58"/>
<path d="M56.7736 26.0971C59.1233 27.3011 59.8508 28.8253 61.0145 31.8736C62.1782 34.922 63.3424 35.6146 63.3424 35.6146C63.3424 35.6146 60.8691 36.169 58.1052 41.8497C56.1958 40.4113 54.9005 38.3391 54.468 36.0305C53.7405 32.1506 56.7736 26.0971 56.7736 26.0971Z" fill="url(#paint15_linear_441_2376)"/>
<path d="M40.7967 22.6798L32.9977 25.7517C32.9977 25.7517 31.7406 33.4143 31.8429 36.268C31.9452 39.1217 36.0825 67.4425 36.0825 67.4425C36.0825 67.4425 46.4247 68.6393 51.6246 67.4425C56.8245 66.2457 60.413 65.1504 60.413 65.1504C60.413 65.1504 58.6173 37.5118 58.2077 34.6579C57.7981 31.8039 56.7741 26.096 56.7741 26.096L52.703 24.0938L50.4456 25.7497L40.7967 22.6798Z" fill="url(#paint16_linear_441_2376)"/>
<path d="M51.3375 29.2614C51.3375 29.2614 54.071 54.7194 54.5898 57.6065L52.8119 61.2857C52.8119 61.2857 49.8269 59.1582 49.6539 57.977C49.4809 56.7958 49.2523 29.3927 49.2523 29.3927L51.3375 29.2614Z" fill="url(#paint17_linear_441_2376)"/>
<path d="M63.7865 35.6272C63.2469 35.4299 60.9128 34.8426 60.0046 34.8652C59.0965 34.8878 56.3444 34.6492 55.2571 34.8117C54.1697 34.9742 53.162 36.5535 52.2343 37.0109C51.7432 37.2533 50.7676 37.7225 49.5977 38.267C49.9973 39.3381 50.3706 40.4181 50.7448 41.4978C51.1888 41.1469 51.6862 40.8651 52.2192 40.6626C53.7965 40.2066 53.7517 39.7775 54.6018 39.8226C55.0978 39.8883 55.6022 39.8625 56.0883 39.7463C56.8546 39.6129 57.3843 38.4504 57.9323 38.0904C58.4803 37.7304 59.2851 37.3464 59.1889 37.0453C59.0928 36.7441 59.0557 36.3771 57.2145 36.7961C57.2145 36.7961 58.966 36.1381 59.7446 36.1275C60.5232 36.117 62.1694 36.3351 62.9478 36.3246C63.7261 36.314 64.3265 35.8242 63.7865 35.6272Z" fill="url(#paint18_linear_441_2376)"/>
<path d="M49.1544 38.3732L51.3577 37.2502L53.3628 41.8744L51.2151 43.4974L49.1544 38.3732Z" fill="url(#paint19_linear_441_2376)"/>
<path d="M56.0713 43.8469L62.3991 45.3728C63.0494 45.5257 63.8362 45.1177 64.1592 44.4625L71.1912 29.9912C71.5126 29.3418 71.2525 28.6892 70.6094 28.5328L64.3394 26.9757C63.1841 26.9332 62.5911 27.2095 62.2614 27.8759L55.2205 42.2419C54.8878 42.9139 54.9761 43.3636 56.0713 43.8469Z" fill="#97A3CC"/>
<path d="M56.428 43.9635L62.7871 45.4994C63.4414 45.6538 64.2319 45.2451 64.5562 44.5875L71.6159 30.0514C71.9372 29.4003 71.6752 28.7451 71.0281 28.5874L64.725 27.0275C63.9715 26.8995 63.2224 27.2743 62.8924 27.9443L55.792 42.442C55.456 43.1209 55.7425 43.8018 56.428 43.9635Z" fill="white"/>
<path d="M66.678 41.3921C67.315 41.2242 68.1641 41.1562 68.3766 40.7519C68.5892 40.3475 68.9073 40.2464 69.2611 39.9429C69.6148 39.6393 69.4027 39.3362 69.8273 38.9656C70.252 38.5951 69.8273 37.9545 69.8627 37.6176C69.9231 37.078 69.8993 36.5326 69.792 35.9998C69.6504 35.3931 69.0841 35.2583 68.3413 35.0224C67.5985 34.7865 67.0673 34.7865 67.0673 35.157C67.0673 35.5275 67.846 36.0334 67.846 36.0334C67.846 36.0334 66.572 35.6291 66.2183 35.4942C65.8646 35.3593 65.298 35.6622 65.546 36.1009C65.7939 36.5396 66.8197 37.1122 67.1383 37.2807C67.3462 37.4037 67.5168 37.5781 67.6326 37.7861C67.0786 37.7825 66.5289 37.6914 66.005 37.5163C65.3326 37.2466 64.731 36.6399 64.271 36.9096C63.811 37.1794 64.0587 37.5163 64.5182 37.8869C64.5182 37.8869 65.5094 38.5274 65.8282 38.662C65.8282 38.662 64.8375 38.6959 64.3422 38.494C63.8469 38.2922 63.5989 38.5279 63.7406 38.8987C63.8822 39.2694 65.2622 39.5725 65.2978 39.7074C65.3334 39.8423 65.0506 40.1795 64.8731 40.5839C64.6957 40.9882 66.678 41.3921 66.678 41.3921Z" fill="url(#paint20_linear_441_2376)"/>
<path d="M52.5284 26.3232L51.337 29.2616L49.252 29.3703L46.1247 25.8878L50.6901 25.7518L52.5284 26.3232Z" fill="url(#paint21_linear_441_2376)"/>
<path d="M41.7394 21.2548L50.4457 25.7517L46.92 28.5529L40.7969 22.6799L41.7394 21.2548Z" fill="url(#paint22_linear_441_2376)"/>
<path d="M50.446 25.7516L53.2885 27.9355L52.7035 24.0957L51.7773 23.0031L50.446 25.7516Z" fill="url(#paint23_linear_441_2376)"/>
<path d="M32.9979 25.7517C32.9979 25.7517 30.5152 27.7047 29.9756 28.6301C29.436 29.5555 29.7601 31.714 29.544 34.0779C29.328 36.4418 30.1578 48.2636 31.345 50.2166C32.5322 52.1697 34.6908 52.6837 35.7695 52.6837C36.8482 52.6837 51.2144 43.4972 51.2144 43.4972L49.154 38.3727L38.6103 42.5072C38.6103 42.5072 38.7181 34.1811 38.8263 32.3317C38.9346 30.4824 35.1575 26.266 32.9979 25.7517Z" fill="url(#paint24_linear_441_2376)"/>
<defs>
<linearGradient id="paint0_linear_441_2376" x1="119.517" y1="31.3697" x2="151.727" y2="40.3266" gradientUnits="userSpaceOnUse">
<stop stop-color="#19377C"/>
<stop offset="1" stop-color="#097EE2"/>
</linearGradient>
<linearGradient id="paint1_linear_441_2376" x1="116.923" y1="31.1574" x2="149.41" y2="40.1913" gradientUnits="userSpaceOnUse">
<stop stop-color="#C5CEE5"/>
<stop offset="1" stop-color="#F1F3F5"/>
</linearGradient>
<linearGradient id="paint2_linear_441_2376" x1="120.395" y1="32.1225" x2="145.937" y2="39.2251" gradientUnits="userSpaceOnUse">
<stop stop-color="#E1E6EF"/>
<stop offset="0.2887" stop-color="#F2F4F5"/>
<stop offset="0.6077" stop-color="#FCFCF9"/>
<stop offset="1" stop-color="#FFFFFA"/>
</linearGradient>
<linearGradient id="paint3_linear_441_2376" x1="123.864" y1="33.087" x2="142.468" y2="38.2604" gradientUnits="userSpaceOnUse">
<stop stop-color="#C5CEE5"/>
<stop offset="1" stop-color="#F1F3F5"/>
</linearGradient>
<linearGradient id="paint4_linear_441_2376" x1="127.594" y1="34.1248" x2="138.737" y2="37.2235" gradientUnits="userSpaceOnUse">
<stop stop-color="#E1E6EF"/>
<stop offset="0.2887" stop-color="#F2F4F5"/>
<stop offset="0.6077" stop-color="#FCFCF9"/>
<stop offset="1" stop-color="#FFFFFA"/>
</linearGradient>
<linearGradient id="paint5_linear_441_2376" x1="130.974" y1="35.0687" x2="135.357" y2="36.2874" gradientUnits="userSpaceOnUse">
<stop stop-color="#C5CEE5"/>
<stop offset="1" stop-color="#F1F3F5"/>
</linearGradient>
<linearGradient id="paint6_linear_441_2376" x1="129.149" y1="46.3833" x2="141.735" y2="49.8832" gradientUnits="userSpaceOnUse">
<stop stop-color="#0E6FD4"/>
<stop offset="0.1637" stop-color="#0A8AE1"/>
<stop offset="0.3756" stop-color="#06A7EE"/>
<stop offset="0.5871" stop-color="#02BCF7"/>
<stop offset="0.7962" stop-color="#01C8FD"/>
<stop offset="1" stop-color="#00CCFF"/>
</linearGradient>
<linearGradient id="paint7_linear_441_2376" x1="105.031" y1="36.3029" x2="131.488" y2="43.6601" gradientUnits="userSpaceOnUse">
<stop stop-color="#1E3CA3"/>
<stop offset="1" stop-color="#009CFF"/>
</linearGradient>
<linearGradient id="paint8_linear_441_2376" x1="52.1544" y1="77.4319" x2="73.763" y2="85.5862" gradientUnits="userSpaceOnUse">
<stop stop-color="#071786"/>
<stop offset="0.021" stop-color="#061683"/>
<stop offset="0.454" stop-color="#04105A"/>
<stop offset="0.795" stop-color="#020D41"/>
<stop offset="1" stop-color="#020C38"/>
</linearGradient>
<linearGradient id="paint9_linear_441_2376" x1="45.0344" y1="66.5419" x2="38.0346" y2="109.15" gradientUnits="userSpaceOnUse">
<stop stop-color="#071786"/>
<stop offset="0.021" stop-color="#061683"/>
<stop offset="0.454" stop-color="#04105A"/>
<stop offset="0.795" stop-color="#020D41"/>
<stop offset="1" stop-color="#020C38"/>
</linearGradient>
<linearGradient id="paint10_linear_441_2376" x1="56.8925" y1="40.419" x2="66.1681" y2="40.419" gradientUnits="userSpaceOnUse">
<stop stop-color="#074FC0"/>
<stop offset="0.412" stop-color="#06319D"/>
<stop offset="0.734" stop-color="#061F88"/>
</linearGradient>
<linearGradient id="paint11_linear_441_2376" x1="68.9131" y1="41.0547" x2="62.1528" y2="46.6016" gradientUnits="userSpaceOnUse">
<stop stop-color="#074FC0"/>
<stop offset="0.412" stop-color="#06319D"/>
<stop offset="0.734" stop-color="#061F88"/>
</linearGradient>
<linearGradient id="paint12_linear_441_2376" x1="65.4827" y1="41.4315" x2="67.9975" y2="41.4315" gradientUnits="userSpaceOnUse">
<stop stop-color="#074FC0"/>
<stop offset="1" stop-color="#00A3E5"/>
</linearGradient>
<linearGradient id="paint13_linear_441_2376" x1="44.2971" y1="23.7892" x2="49.514" y2="24.4719" gradientUnits="userSpaceOnUse">
<stop stop-color="white" stop-opacity="0"/>
<stop offset="1" stop-color="#E0BAD1"/>
</linearGradient>
<linearGradient id="paint14_linear_441_2376" x1="43.1185" y1="8.30465" x2="60.7847" y2="8.30465" gradientUnits="userSpaceOnUse">
<stop stop-color="#071786"/>
<stop offset="0.021" stop-color="#061683"/>
<stop offset="0.454" stop-color="#04105A"/>
<stop offset="0.795" stop-color="#020D41"/>
<stop offset="1" stop-color="#020C38"/>
</linearGradient>
<linearGradient id="paint15_linear_441_2376" x1="57.2581" y1="27.7039" x2="65.367" y2="40.7136" gradientUnits="userSpaceOnUse">
<stop stop-color="#F9FBFC"/>
<stop offset="0.292" stop-color="#F1F5FC"/>
<stop offset="0.733" stop-color="#DCE6FD"/>
<stop offset="0.997" stop-color="#CDDBFF"/>
</linearGradient>
<linearGradient id="paint16_linear_441_2376" x1="46.125" y1="22.6798" x2="46.125" y2="67.9744" gradientUnits="userSpaceOnUse">
<stop stop-color="#F9FBFC"/>
<stop offset="0.292" stop-color="#F1F5FC"/>
<stop offset="0.733" stop-color="#DCE6FD"/>
<stop offset="0.997" stop-color="#CDDBFF"/>
</linearGradient>
<linearGradient id="paint17_linear_441_2376" x1="51.921" y1="61.2857" x2="51.921" y2="29.2614" gradientUnits="userSpaceOnUse">
<stop stop-color="#740247"/>
<stop offset="1" stop-color="#FF4266"/>
</linearGradient>
<linearGradient id="paint18_linear_441_2376" x1="49.5977" y1="38.1262" x2="63.9935" y2="38.1262" gradientUnits="userSpaceOnUse">
<stop stop-color="#FFD1C1"/>
<stop offset="0.386" stop-color="#FFCFBE"/>
<stop offset="0.588" stop-color="#FFC8B6"/>
<stop offset="0.747" stop-color="#FFBDA9"/>
<stop offset="0.883" stop-color="#FFAD96"/>
<stop offset="1" stop-color="#FF9A7F"/>
</linearGradient>
<linearGradient id="paint19_linear_441_2376" x1="49.1544" y1="40.3738" x2="53.3628" y2="40.3738" gradientUnits="userSpaceOnUse">
<stop stop-color="#074FC0"/>
<stop offset="1" stop-color="#00A3E5"/>
</linearGradient>
<linearGradient id="paint20_linear_441_2376" x1="63.701" y1="38.1258" x2="70.0174" y2="38.1258" gradientUnits="userSpaceOnUse">
<stop stop-color="#FFD1C1"/>
<stop offset="0.386" stop-color="#FFCFBE"/>
<stop offset="0.588" stop-color="#FFC8B6"/>
<stop offset="0.747" stop-color="#FFBDA9"/>
<stop offset="0.883" stop-color="#FFAD96"/>
<stop offset="1" stop-color="#FF9A7F"/>
</linearGradient>
<linearGradient id="paint21_linear_441_2376" x1="49.3265" y1="29.3703" x2="49.3265" y2="25.7518" gradientUnits="userSpaceOnUse">
<stop stop-color="#740247"/>
<stop offset="1" stop-color="#FF4266"/>
</linearGradient>
<linearGradient id="paint22_linear_441_2376" x1="45.6213" y1="22.5758" x2="45.6213" y2="28.1369" gradientUnits="userSpaceOnUse">
<stop stop-color="#F9FBFC"/>
<stop offset="0.292" stop-color="#F1F5FC"/>
<stop offset="0.733" stop-color="#DCE6FD"/>
<stop offset="0.997" stop-color="#CDDBFF"/>
</linearGradient>
<linearGradient id="paint23_linear_441_2376" x1="51.8673" y1="22.5739" x2="51.8673" y2="28.1328" gradientUnits="userSpaceOnUse">
<stop stop-color="#F9FBFC"/>
<stop offset="0.292" stop-color="#F1F5FC"/>
<stop offset="0.733" stop-color="#DCE6FD"/>
<stop offset="0.997" stop-color="#CDDBFF"/>
</linearGradient>
<linearGradient id="paint24_linear_441_2376" x1="40.1451" y1="43.6884" x2="29.3409" y2="23.6446" gradientUnits="userSpaceOnUse">
<stop stop-color="#074FC0"/>
<stop offset="0.412" stop-color="#06319D"/>
<stop offset="0.734" stop-color="#061F88"/>
</linearGradient>
</defs>
</svg>
