<svg width="276" height="283" viewBox="0 0 276 283" fill="none" xmlns="http://www.w3.org/2000/svg">
<path d="M98.2987 148.533L40.1085 153.157L67.104 157.068L53.2942 168.43L99.4772 154.748L98.2987 148.533Z" fill="#EB0E00" fill-opacity="0.55"/>
<path d="M53.8492 168.135L67.1834 157.164L67.4018 156.985L67.1219 156.944L41.2305 153.193L98.1968 148.667L99.3333 154.66L53.8492 168.135Z" stroke="black" stroke-opacity="0.5" stroke-width="0.25"/>
<path d="M100.763 150.783L44.2462 165.387L71.5114 164.577L59.8714 178.153L102.997 156.7L100.763 150.783Z" fill="#EB0E00" fill-opacity="0.55"/>
<path d="M60.3673 177.767L71.6063 164.658L71.7904 164.443L71.5077 164.452L45.3576 165.229L100.686 150.932L102.84 156.639L60.3673 177.767Z" stroke="black" stroke-opacity="0.5" stroke-width="0.25"/>
<path d="M101.999 146.752L43.8083 151.375L70.8038 155.286L56.994 166.648L103.177 152.966L101.999 146.752Z" fill="#F2F1F1"/>
<path d="M57.5491 166.353L70.8833 155.383L71.1017 155.203L70.8218 155.162L44.9304 151.412L101.897 146.885L103.033 152.878L57.5491 166.353Z" stroke="black" stroke-opacity="0.5" stroke-width="0.25"/>
<path d="M104.568 155.111L43.5189 196.016L76.8934 167.735L43.3881 168.968L104.259 149.833L104.568 155.111Z" fill="#F2F1F1"/>
<path d="M76.8888 167.61L44.3109 168.809L104.144 150.001L104.439 155.047L45.2911 194.678L76.9742 167.83L77.2498 167.597L76.8888 167.61Z" stroke="black" stroke-opacity="0.5" stroke-width="0.25"/>
<path d="M56.5778 180.992L65.6423 171.934L32.0542 171.698L54.2332 158.063L31.6048 149.014L58.4199 147.447L42.1736 131.369L42.6909 131.501C43.285 131.653 102.037 146.607 104.062 146.488L104.431 146.467L87.0611 164.62L56.5778 180.992ZM33.0712 171.415L66.3419 171.648L58.1852 179.8L86.9069 164.373L103.76 146.75C98.9056 146.085 49.1695 133.446 43.14 131.912L59.0896 147.696L32.9216 149.225L54.8762 158.005L33.0712 171.415Z" fill="#F2F1F1"/>
<path d="M57.2671 180.48L65.7307 172.022L65.9421 171.811L65.6432 171.809L32.4912 171.577L54.2986 158.169L54.5105 158.039L54.2796 157.947L32.1717 149.106L58.4272 147.571L58.7072 147.555L58.5078 147.358L42.5897 131.605L42.6598 131.623L42.66 131.623C42.9572 131.698 57.794 135.475 72.8097 139.217C80.3175 141.089 87.8704 142.952 93.6731 144.339C96.5744 145.033 99.0387 145.608 100.841 146.007C101.742 146.206 102.479 146.36 103.023 146.464C103.294 146.516 103.519 146.555 103.692 146.58C103.861 146.604 103.992 146.618 104.07 146.613L104.121 146.61L86.9845 164.519L57.2671 180.48ZM33.0058 171.308L32.6344 171.537L33.0704 171.54L66.0421 171.771L58.0969 179.712L58.2444 179.91L86.966 164.483L86.9835 164.473L86.9972 164.459L103.851 146.837L104.02 146.66L103.777 146.627C102.572 146.461 98.5608 145.549 93.1174 144.245C87.6782 142.943 80.8181 141.253 73.9209 139.536C60.1267 136.101 46.1855 132.558 43.1709 131.791L42.7253 131.677L43.0521 132.001L58.8023 147.587L32.9143 149.1L32.8752 149.341L54.5989 158.028L33.0058 171.308Z" stroke="black" stroke-opacity="0.5" stroke-width="0.25"/>
<path d="M99.11 145.077L60.5794 132.264L69.1119 142.003L33.4135 139.387L103.1 151.675L99.11 145.077Z" fill="#F2F1F1"/>
<path d="M102.851 151.504L35.8614 139.692L69.1028 142.128L69.4069 142.15L69.206 141.921L60.9768 132.528L99.0268 145.181L102.851 151.504Z" stroke="black" stroke-opacity="0.5" stroke-width="0.25"/>
<path d="M122.61 128.253L104.521 120.905L85.9082 145.984L102.495 141.332L122.61 128.253Z" fill="url(#paint0_linear_441_1700)"/>
<path d="M131.329 159.338L119.699 175.024L90.7611 163.281L107.345 158.629L131.329 159.338Z" fill="url(#paint1_linear_441_1700)"/>
<path d="M109.475 155.777L102.461 157.025L99.1098 145.079L105.794 142.665L109.475 155.777Z" fill="#0E538C"/>
<g filter="url(#filter0_d_441_1700)">
<path d="M241.857 98.6817C241.857 98.6817 215.234 132.215 173.933 148.043C174.36 147.817 173.51 148.278 173.933 148.043C174.36 147.823 173.51 148.275 173.933 148.043C149.766 156.304 121.903 161.546 107.406 158.609L102.378 139.331C113.336 128.699 133.503 115.159 152.982 109.277C157.016 108.058 157.288 108.014 161.463 107.559C161.937 107.506 161.69 107.205 164.77 106.921C167.849 106.637 167.718 106.584 168.193 106.55C235.327 95.0004 241.857 98.6817 241.857 98.6817Z" fill="white"/>
</g>
<path d="M127.62 146.109L96.6323 154.803L88.3357 154.633L95.3339 150.174L126.321 141.482L127.62 146.109Z" fill="#3D5169"/>
<path d="M151.598 108.955C154.645 108.853 156.9 108.817 158.524 108.83L163.133 106.639L190.004 104.002L194.598 106.006L195.517 105.886L195.774 106.234L192.23 111.45L191.515 112.613L190.995 113.998L190.554 114.593L190.126 117.453L190.169 117.536C190.431 117.254 190.626 117.097 190.812 117.101L193.077 118.774L193.033 119.252C193.333 119.424 193.404 119.67 192.96 120.048L192.942 120.244C193.413 120.557 195.038 121.669 194.952 122.1L192.727 122.597L192.699 122.902L192.56 122.634L192.727 122.597L192.942 120.244C192.863 120.192 192.816 120.162 192.816 120.162C192.869 120.122 192.917 120.085 192.96 120.048L193.033 119.252C192.396 118.887 190.723 118.858 190.739 118.627L190.169 117.536C188.925 118.876 186.177 123.04 175.802 126.183L156.494 129.277C155.583 129.18 152.212 129.87 148.299 129.291C144.386 128.712 129.5 109.689 151.598 108.955Z" fill="black"/>
<path d="M154.151 110.908C154.151 110.908 173.696 108.221 151.598 108.955C129.5 109.689 144.386 128.712 148.299 129.291C152.212 129.87 155.583 129.18 156.494 129.277L175.802 126.183C188.363 122.378 189.744 117.076 190.812 117.101L193.077 118.774L192.699 122.902L192.56 122.634L194.952 122.1C195.052 121.596 192.816 120.162 192.816 120.162C194.575 118.862 190.715 118.978 190.739 118.627L190.126 117.453L190.554 114.593L190.995 113.998L191.515 112.613L192.23 111.45L195.774 106.234L195.517 105.886L194.598 106.006L190.004 104.002L163.133 106.639L154.151 110.908Z" stroke="black"/>
<path d="M241.975 99.113C241.975 99.113 226.731 118.161 205.657 131.1C205.264 131.34 200.68 129.016 200.283 129.25C193.858 126.526 194.17 124.738 191.494 119.774C188.818 114.813 188.301 109.009 189.997 102.962C190.459 102.847 190.92 102.734 191.384 102.626C216.266 96.7521 241.975 99.113 241.975 99.113Z" fill="url(#paint2_linear_441_1700)"/>
<path d="M191.379 102.629C190.915 102.738 190.454 102.851 189.992 102.966C189.532 103.08 189.07 103.198 188.609 103.32C187.866 106.159 187.587 108.943 187.78 111.613C188.004 114.688 188.854 117.616 190.308 120.316C191.762 123.016 193.802 125.459 196.372 127.57C198.603 129.404 201.238 130.997 204.217 132.311C204.615 132.081 205.015 131.845 205.409 131.608C205.805 131.371 206.199 131.134 206.592 130.893C200.294 128.313 195.437 124.436 192.692 119.338C189.95 114.24 189.634 108.506 191.379 102.629Z" fill="#0E538C"/>
<path d="M200.017 102.937C207.245 100.836 232.512 99.8305 239.239 100.805C232.846 100.91 203.296 103.026 202.36 105.857C200.748 103.812 200.017 102.937 200.017 102.937Z" fill="#6F95B4"/>
<path d="M180.419 113.712C179.363 113.499 177.229 113.269 175.944 112.443C175.577 112.207 176.274 111.202 176.683 111.05C177.598 110.756 179.942 112.678 180.34 112.623L180.419 113.712Z" fill="#FFD1AA"/>
<path d="M174.532 105.094C174.825 104.621 176.359 104.262 177.387 104.507C178.073 104.67 175.091 105.849 175.98 105.156C173.679 104.737 176.731 106.041 176.861 106.253C176.992 106.465 177.024 105.686 176.216 106.037C175.409 106.388 176.686 106.693 176.817 106.905C177.078 107.329 178.318 107.443 178.277 107.614C178.286 108.34 176.441 107.72 175.666 107.174C174.76 106.415 169.425 110.575 167.54 110.126C166.855 109.963 165.372 104.682 165.837 104.25C167.656 102.692 173.267 106.603 174.532 105.094Z" fill="#FFD1AA"/>
<path d="M166.079 102.723C167.252 102.331 173.106 103.347 174.767 105.024C176.427 106.7 176.13 110.793 177.644 113.308C177.644 113.308 177.101 115.391 174.186 116.194C172.988 116.477 170.681 116.448 169.45 115.129C169.45 115.129 169.011 111.325 167.926 109.168C166.868 107.12 163.953 103.455 166.079 102.723Z" fill="url(#paint3_linear_441_1700)"/>
<path d="M169.716 100.715C169.716 100.715 171.053 101.561 171.573 102.041C170.931 103.469 171.645 103.79 171.916 104.28C170.931 103.469 170.237 103.647 170.089 103.703C168.589 103.765 167.89 102.591 168.619 102.061C169.451 101.577 169.716 100.715 169.716 100.715Z" fill="#FFD1AA"/>
<path d="M173.222 97.4478C173.222 97.4478 173.183 98.2965 173.138 98.5237C173.045 98.7296 173.046 98.8539 173 98.9568C172.954 99.0597 173.004 99.3297 173.005 99.454C172.96 99.6812 172.822 100.114 172.683 100.423C172.544 100.732 172.502 101.208 172.361 101.392C172.175 101.68 171.188 102.349 170.426 101.759C170.426 101.759 170.56 100.953 170.317 100.349C170.122 99.7662 172.691 96.3427 173.222 97.4478Z" fill="#FFD1AA"/>
<path d="M173.055 97.9235C173.055 97.9235 172.836 98.6835 172.495 98.8977C172.153 99.1119 172.74 99.9892 172.49 99.9994C171.944 100.122 172.051 99.066 171.469 99.5403C171.23 99.8004 171.51 100.54 171.623 100.836C171.735 101.132 171.393 101.346 170.847 101.468C170.45 101.535 169.541 101.371 169.337 101.279C169.337 101.279 169.112 100.688 169 100.392C168.842 100.198 168.934 99.9942 169.53 98.6681C170.173 97.24 173.055 97.9235 173.055 97.9235Z" fill="#1D1273"/>
<path d="M168.351 96.8414C168.911 96.4695 170.219 96.1841 171.278 96.1611C172.337 96.1381 172.104 95.7834 172.259 95.7286C173.256 95.5528 173.63 97.3438 173.023 97.8196C172.369 98.3992 170.093 102.21 169.611 103.865C169.128 105.521 167.001 105.089 167.001 105.089C167.001 105.089 167.449 100.248 167.029 99.4346C166.608 98.6213 167.853 97.3663 168.351 96.8414Z" fill="#1D1273"/>
<path d="M173.572 105.226C174.557 104.437 175.575 105.998 176.726 108.48C177.74 110.598 178.526 111.829 178.943 112.367C179.266 112.939 178.737 115.501 177.899 114.984C175.808 113.412 174.609 111.086 173.499 109.282C172.392 107.2 172.586 106.015 173.572 105.226Z" fill="url(#paint4_linear_441_1700)"/>
<path d="M153.288 104.906C154.683 104.475 159.753 105.424 161.671 107.448C163.589 109.473 163.129 114.302 164.851 117.314C164.851 117.314 164.155 119.76 160.689 120.632C159.266 120.935 156.541 120.839 155.121 119.249C155.121 119.249 154.703 114.742 153.479 112.164C152.282 109.716 150.755 105.715 153.288 104.906Z" fill="url(#paint5_linear_441_1700)"/>
<path d="M153.559 103.632C153.559 103.632 155.425 103.505 156.256 103.599C156.641 105.409 157.547 105.217 158.147 105.494C156.641 105.409 156.104 106.064 156.002 106.221C154.615 107.327 153.129 106.697 153.454 105.682C153.908 104.639 153.559 103.632 153.559 103.632Z" fill="#CB6429"/>
<path d="M154.323 98.3336C154.323 98.3336 155.292 99.0737 155.477 99.3048C155.532 99.5634 155.688 99.6652 155.716 99.7945C155.743 99.9238 156.187 100.1 156.343 100.202C156.528 100.433 156.767 100.922 156.85 101.31C156.932 101.698 157.43 102.133 157.356 102.419C157.309 102.835 156.004 104.329 153.62 104.565C153.62 104.565 152.91 103.77 151.636 103.501C150.491 103.203 151.802 97.9237 154.323 98.3336Z" fill="#CB6429"/>
<path d="M149.97 100.746C150.22 100.017 151.192 98.8645 152.117 98.1271C153.042 97.3898 152.599 97.2137 152.701 97.0569C153.469 96.2177 154.991 97.6511 154.768 98.5095C154.572 99.4972 152.89 99.8549 153.561 101.739C154.233 103.624 152.496 103.723 152.496 103.723C152.496 103.723 151.923 103.575 151.01 103.093C150.096 102.612 149.876 101.577 149.97 100.746Z" fill="#1D1273"/>
<path d="M164.348 108.077C164.802 108.582 165.728 108.46 166.004 108.537C166.372 108.64 166.432 108.782 166.616 108.834C166.708 108.859 166.518 109.185 166.15 109.083C165.782 108.98 166.821 109.522 166.939 109.808C167.026 110.21 167.144 110.496 166.928 110.562C166.836 110.536 166.809 110.276 166.598 109.965C166.539 109.822 166.447 109.797 166.355 109.771C166.355 109.771 166.928 110.562 166.738 110.888C166.705 111.005 166.18 111.112 166.061 110.826C165.943 110.541 165.851 110.515 165.667 110.464C164.162 110.172 164.785 109.713 164.049 109.509L164.348 108.077Z" fill="#CB6429"/>
<path d="M166.315 110.6C165.357 111.418 162.21 112.544 159.398 113.45C158.057 113.956 159.933 116.191 161.45 116.229C163.072 116.152 166.898 111.768 166.898 111.768C166.65 110.566 166.315 110.6 166.315 110.6Z" fill="#CB6429"/>
<path d="M164.221 108.025C162.961 107.998 160.338 107.293 157.636 106.098C156.298 105.583 155.352 107.511 156.459 108.55C157.721 109.571 164.353 109.834 164.353 109.834C164.968 108.772 164.221 108.025 164.221 108.025Z" fill="#CB6429"/>
<path d="M155.925 105.346C154.594 105.3 153.188 107.643 153.993 110.087C154.699 112.14 158.441 114.161 160.783 116.518C161.7 117.519 162.431 114.988 162.128 114.272C161.824 113.556 160.912 111.867 160.003 109.49C158.79 106.626 157.052 105.297 155.925 105.346Z" fill="url(#paint6_linear_441_1700)"/>
<path d="M165.095 111.308C165.767 111.209 166.178 110.371 166.394 110.183C166.683 109.933 166.835 109.962 166.979 109.837C167.051 109.775 167.218 110.113 166.93 110.363C166.641 110.613 167.666 110.047 167.97 110.106C168.353 110.257 168.657 110.316 168.592 110.533C168.52 110.595 168.289 110.474 167.913 110.477C167.761 110.448 167.689 110.511 167.617 110.573C167.617 110.573 168.592 110.533 168.759 110.871C168.839 110.963 168.637 111.46 168.333 111.401C168.03 111.342 167.958 111.404 167.813 111.529C166.738 112.622 166.701 111.849 166.123 112.349L165.095 111.308Z" fill="#CB6429"/>
<path d="M189.541 113.096C190.216 113.171 190.826 112.464 191.084 112.338C191.426 112.169 191.566 112.236 191.737 112.152C191.823 112.11 191.898 112.479 191.555 112.648C191.213 112.816 192.348 112.529 192.627 112.663C192.959 112.907 193.238 113.041 193.12 113.234C193.035 113.276 192.842 113.1 192.477 113.008C192.338 112.941 192.252 112.983 192.167 113.025C192.167 113.025 193.12 113.234 193.196 113.604C193.249 113.713 192.928 114.142 192.65 114.008C192.371 113.874 192.285 113.916 192.114 114C190.796 114.784 190.956 114.027 190.271 114.364L189.541 113.096Z" fill="#5C320D"/>
<path d="M188.165 110.713C188.619 111.218 189.545 111.097 189.821 111.174C190.189 111.276 190.248 111.419 190.432 111.47C190.524 111.496 190.334 111.822 189.966 111.719C189.598 111.617 190.637 112.158 190.756 112.444C190.842 112.847 190.961 113.132 190.744 113.198C190.652 113.173 190.626 112.913 190.415 112.602C190.355 112.459 190.263 112.433 190.171 112.408C190.171 112.408 190.744 113.198 190.555 113.525C190.522 113.642 189.997 113.748 189.878 113.463C189.759 113.177 189.667 113.151 189.483 113.1C187.979 112.808 188.602 112.35 187.866 112.145L188.165 110.713Z" fill="#5C320D"/>
<path d="M179.469 103.683C180.086 103.732 180.621 103.073 180.852 102.951C181.159 102.789 181.288 102.846 181.441 102.764C181.518 102.724 181.597 103.058 181.289 103.221C180.982 103.383 182.007 103.091 182.265 103.205C182.573 103.418 182.831 103.532 182.729 103.711C182.652 103.752 182.472 103.597 182.138 103.523C182.009 103.466 181.932 103.507 181.856 103.547C181.856 103.547 182.729 103.711 182.807 104.045C182.859 104.143 182.579 104.542 182.322 104.428C182.064 104.313 181.988 104.354 181.834 104.435C180.657 105.184 180.782 104.491 180.168 104.816L179.469 103.683Z" fill="#FFD1AA"/>
<path d="M177.718 101.947C178.3 102.153 178.987 101.653 179.241 101.594C179.58 101.516 179.689 101.604 179.859 101.565C179.943 101.545 179.934 101.888 179.595 101.967C179.257 102.045 180.322 102.025 180.542 102.202C180.786 102.486 181.005 102.663 180.861 102.81C180.776 102.829 180.642 102.633 180.338 102.476C180.228 102.388 180.143 102.408 180.059 102.427C180.059 102.427 180.861 102.81 180.851 103.153C180.876 103.261 180.503 103.574 180.284 103.398C180.064 103.222 179.98 103.241 179.81 103.28C178.481 103.702 178.779 103.065 178.102 103.222L177.718 101.947Z" fill="#FFD1AA"/>
<path d="M144.588 110.862L146.742 110.284C145.365 108.706 146.164 108.175 146.164 108.175L144.632 107.029L144.588 110.862Z" fill="#FFD1AA"/>
<path d="M150.701 113.084C150.079 112.447 149.535 111.595 148.502 110.412C147.614 109.166 145.116 109.35 143.373 110.475C141.341 111.726 142.518 115.207 143.385 117.189C144.185 119.019 145.262 121.091 145.585 124.582C148.827 125.708 152.902 125.198 154.611 122.816C153.456 120.96 150.913 117.894 150.68 116.18C150.757 115.965 151.945 114.356 150.701 113.084Z" fill="url(#paint7_linear_441_1700)"/>
<path d="M144.659 103.192C144.526 102.887 144.326 102.43 144.259 102.277C143.104 100.421 141.162 103.449 141.029 105.505C140.896 107.561 145.915 108.818 146.181 107.067C146.314 105.011 145.281 103.828 145.281 103.828C144.793 103.497 144.648 103.56 144.659 103.192Z" fill="#FFD1AA"/>
<path d="M140.942 101.916C139.188 103.409 138.855 103.22 138.834 106.317C138.901 108.83 139.199 106.911 139.255 109.792C139.311 112.673 140.997 111.518 140.62 114.588C142.753 116.679 141.787 115.649 142.753 116.679C143.719 117.71 144.172 117.173 143.962 119.444C143.962 119.444 146.614 120.82 144.992 117.896C143.37 114.973 145.241 115.293 143.953 113.132C143.075 111.517 145.363 111.244 144.896 110.177C144.43 109.109 146.106 107.832 143.941 106.417C142.686 105.513 145.306 103.641 144.562 102.332C144.162 101.417 142.696 100.423 140.942 101.916Z" fill="#1D1273"/>
<path d="M142.827 104.902C142.816 105.27 143.227 105.817 143.504 106.059C143.782 106.301 144.004 106.022 143.938 105.87C143.871 105.717 143.815 105.196 143.404 104.65C143.404 104.65 142.838 104.534 142.827 104.902Z" fill="#FFD1AA"/>
<path d="M189.408 113.151C188.45 113.969 186.022 115.188 183.211 116.095C181.869 116.6 183.745 118.836 185.263 118.874C186.884 118.797 190.711 114.413 190.711 114.413C190.462 113.211 189.408 113.151 189.408 113.151Z" fill="#5C320D"/>
<path d="M188.031 110.669C186.772 110.643 184.148 109.937 181.447 108.743C180.109 108.227 179.162 110.156 180.27 111.194C181.532 112.216 188.164 112.479 188.164 112.479C188.778 111.416 188.031 110.669 188.031 110.669Z" fill="#5C320D"/>
<path d="M179.356 103.737C178.507 104.507 176.332 105.683 173.8 106.584C172.593 107.08 173.174 108.946 174.556 108.94C176.029 108.825 180.576 104.85 180.576 104.85C180.317 103.763 179.356 103.737 179.356 103.737Z" fill="#FFD1AA"/>
<path d="M176.895 99.8494C176.895 99.8494 177.624 100.942 177.733 101.242C177.703 101.526 177.827 101.684 177.813 101.826C177.798 101.968 178.185 102.302 178.309 102.46C178.418 102.76 178.497 103.345 178.452 103.771C178.408 104.197 178.765 104.814 178.596 105.082C178.413 105.491 176.612 106.573 174.142 105.994C174.142 105.994 174.016 104.768 172.825 104.053C171.378 99.657 174.499 98.5607 176.895 99.8494Z" fill="#5C320D"/>
<path d="M174.084 105.034C174.084 105.034 176.059 105.003 176.932 105.151C177.253 107.128 178.217 106.971 178.837 107.305C177.253 107.128 176.656 107.804 176.541 107.968C175.025 109.083 173.487 108.319 173.877 107.241C174.406 106.141 174.084 105.034 174.084 105.034Z" fill="#5C320D"/>
<path d="M173.398 105.818C174.934 105.419 180.395 106.785 182.383 109.165C184.37 111.546 183.642 116.921 185.371 120.395C185.371 120.395 184.498 123.09 180.694 123.858C179.134 124.111 176.179 123.84 174.712 121.976C174.712 121.976 174.471 116.909 173.263 113.951C172.078 111.139 170.609 106.572 173.398 105.818Z" fill="url(#paint8_linear_441_1700)"/>
<path d="M179.527 107.84C178.196 107.794 176.79 110.137 177.596 112.581C178.301 114.634 182.043 116.655 184.386 119.012C185.302 120.013 186.033 117.482 185.73 116.766C185.426 116.05 184.514 114.361 183.605 111.984C182.392 109.12 180.654 107.791 179.527 107.84Z" fill="url(#paint9_linear_441_1700)"/>
<path d="M165.532 113.618C164.183 110.532 160.268 110.578 158.798 111.221C155.857 112.506 157.316 116.244 158.913 118.696C160.51 121.149 162.445 125.209 162.445 125.209C165.595 126.807 170.87 124.012 170.87 124.012C168.639 121.312 166.688 116.263 165.532 113.618Z" fill="url(#paint10_linear_441_1700)"/>
<path d="M162.308 106.073C162.18 105.779 161.803 106.118 161.444 106.1C161.022 105.935 160.581 106.127 160.223 106.109C159.929 106.237 159.488 106.43 159.258 106.706C159.175 106.917 159.092 107.128 159.074 107.486C158.834 109.341 159.789 110.324 160.201 112.069C160.771 112.17 162.433 111.968 162.874 111.775C163.021 111.711 161.965 111.298 161.791 110.499C162.59 110.324 162.499 109.314 162.785 107.964C162.803 107.606 162.611 107.165 162.335 106.936C162.207 106.642 162.436 106.366 162.308 106.073Z" fill="#FFD1AA"/>
<path d="M160.003 104.805C159.618 103.924 157.642 104.612 158.303 105.723C157.357 105.962 156.502 107.211 157.457 108.193C157.401 109.268 158.733 109.911 159.284 110.37C159.348 110.517 159.835 110.829 159.835 110.829C159.835 110.829 161.139 110.609 161.599 110.058C161.994 109.36 161.884 108.708 161.774 108.056C161.472 106.963 162.253 107.147 161.867 106.266C162.244 105.926 162.584 106.302 162.584 106.302C162.759 104.301 160.775 103.768 160.003 104.805Z" fill="#1D1273"/>
<path d="M164.129 112.078C162.696 112.004 162.191 112.05 161.603 112.307C161.456 112.371 161.373 112.582 161.226 112.646L161.125 113.216L165.167 112.849C164.974 112.408 164.487 112.096 164.129 112.078Z" fill="white"/>
<path d="M173.059 124.639C171.995 123.964 169.993 121.286 168.3 118.866C167.423 117.732 165.838 120.183 166.248 121.645C166.798 123.172 172.114 125.54 172.114 125.54C173.189 124.949 173.059 124.639 173.059 124.639Z" fill="#FFD1AA"/>
<path d="M163.006 111.233C161.68 111.106 160.134 113.36 160.789 115.848C161.369 117.94 164.981 120.185 167.176 122.679C168.03 123.735 168.913 121.253 168.654 120.52C168.395 119.787 167.587 118.045 166.824 115.617C165.787 112.685 164.134 111.253 163.006 111.233Z" fill="url(#paint11_linear_441_1700)"/>
<path d="M172.013 124.017C172.464 124.525 173.39 124.41 173.666 124.488C174.033 124.593 174.091 124.736 174.275 124.789C174.367 124.815 174.175 125.14 173.808 125.035C173.44 124.93 174.476 125.478 174.593 125.765C174.676 126.168 174.793 126.454 174.576 126.519C174.484 126.493 174.459 126.233 174.25 125.92C174.192 125.777 174.1 125.751 174.008 125.725C174.008 125.725 174.576 126.519 174.384 126.844C174.351 126.961 173.825 127.064 173.708 126.778C173.591 126.491 173.499 126.465 173.316 126.413C171.813 126.111 172.439 125.657 171.704 125.448L172.013 124.017Z" fill="#FFD1AA"/>
<path d="M155.382 109.33C155.435 108.982 156.172 108.425 156.771 108.341C157.171 108.286 157.264 108.954 157.586 108.341C157.923 107.84 158.176 107.464 158.291 107.562C158.407 107.659 157.947 108.745 157.594 109.135C157.242 109.525 156.873 109.804 156.989 109.901C157.219 110.096 157.903 109.887 157.918 109.999C158.08 110.431 156.966 110.472 156.436 110.319C155.79 110.068 153.86 113.745 152.761 113.898C152.362 113.954 151.607 112.923 151.761 112.561C152.389 111.224 155.038 110.514 155.382 109.33Z" fill="#FFD1AA"/>
<path d="M149.555 115.235C148.937 114.675 149.658 113.896 150.885 112.953C151.926 112.129 152.499 111.525 152.736 111.215C153.009 110.961 154.107 112.383 153.952 112.959C153.406 114.422 152.736 114.079 151.891 114.937C150.886 115.818 150.174 115.794 149.555 115.235Z" fill="url(#paint12_linear_441_1700)"/>
<path d="M160.359 114.941C159.328 115.633 157.391 117.174 155.719 117.603C155.242 117.725 155.079 116.437 155.306 115.999C155.847 115.053 159.203 114.573 159.492 114.213L160.359 114.941Z" fill="#FFD1AA"/>
<path d="M155.469 115.481C155.708 115.42 155.884 115.28 156.211 115.149C156.299 115.079 156.361 115.158 156.424 115.237C156.801 115.71 156.951 116.621 156.963 116.998C157.026 117.077 156.938 117.147 156.85 117.217C156.586 117.427 156.322 117.637 156.146 117.777C156.058 117.848 155.844 117.76 155.782 117.681L155.268 115.771C155.205 115.692 155.318 115.473 155.469 115.481Z" fill="url(#paint13_linear_441_1700)"/>
<path d="M153.269 116.331C154.036 115.849 154.778 115.516 155.557 115.412C155.796 115.35 156.775 116.762 156.197 117.48C155.907 117.839 154.587 118.89 153.531 118.828C152.45 118.915 152.414 116.882 153.269 116.331Z" fill="url(#paint14_linear_441_1700)"/>
<path d="M149.385 113.827C150.762 112.276 151.565 111.942 152.307 111.791C152.537 111.718 153.865 113.233 153.268 113.928C152.969 114.275 152.192 115.355 151.202 115.375C150.177 115.532 148.54 114.391 149.385 113.827Z" fill="url(#paint15_linear_441_1700)"/>
<path d="M159.166 114.345C159.882 114.161 160.486 113.294 160.75 113.084C161.102 112.803 161.253 112.812 161.429 112.672C161.517 112.602 161.618 112.909 161.265 113.189C160.913 113.469 162.095 112.786 162.397 112.804C162.761 112.901 163.063 112.918 162.95 113.137C162.862 113.207 162.648 113.12 162.258 113.172C162.108 113.163 162.019 113.233 161.931 113.303C161.931 113.303 162.95 113.137 163.05 113.444C163.113 113.523 162.798 114.031 162.496 114.013C162.195 113.996 162.107 114.066 161.931 114.206C160.585 115.405 160.711 114.661 160.007 115.221L159.166 114.345Z" fill="#FFD1AA"/>
<path d="M146.954 114.254C148.037 113.99 151.865 115.16 153.242 117.012C154.62 118.865 154.066 122.918 155.253 125.592C155.253 125.592 154.618 127.611 151.937 128.099C150.839 128.252 148.764 127.973 147.748 126.524C147.748 126.524 147.619 122.68 146.794 120.41C145.984 118.251 144.988 114.755 146.954 114.254Z" fill="url(#paint16_linear_441_1700)"/>
<path d="M147.214 113.196C147.214 113.196 148.643 113.224 149.274 113.363C149.491 114.923 150.19 114.825 150.636 115.104C149.491 114.923 149.054 115.438 148.97 115.563C147.864 116.399 146.757 115.758 147.048 114.923C147.439 114.073 147.214 113.196 147.214 113.196Z" fill="#FDE9D9"/>
<path d="M148.022 108.767C148.022 108.767 148.73 109.463 148.861 109.672C148.892 109.895 149.008 109.992 149.023 110.104C149.039 110.215 149.369 110.396 149.485 110.494C149.616 110.703 149.778 111.135 149.824 111.469C149.871 111.803 150.232 112.207 150.164 112.444C150.11 112.792 149.052 113.962 147.223 113.989C147.223 113.989 146.715 113.265 145.754 112.945C144.893 112.61 146.116 108.237 148.022 108.767Z" fill="#FDE9D9"/>
<path d="M148.367 109.059C148.367 109.059 148.576 109.825 148.423 110.187C148.27 110.549 149.146 110.995 148.962 111.134C148.609 111.524 148.17 110.563 147.964 111.273C147.91 111.621 148.487 112.109 148.718 112.304C148.949 112.499 148.796 112.861 148.443 113.251C148.174 113.515 147.407 113.85 147.207 113.877C147.207 113.877 146.745 113.487 146.514 113.292C146.299 113.209 146.268 112.986 146.066 111.537C145.849 109.978 148.367 109.059 148.367 109.059Z" fill="#1D1273"/>
<path d="M144.598 110.493C144.82 109.894 145.61 108.989 146.347 108.432C147.084 107.875 146.753 107.694 146.837 107.568C147.459 106.914 148.559 108.237 148.353 108.947C148.162 109.769 146.864 109.95 147.296 111.594C147.729 113.237 146.4 113.195 146.4 113.195C146.4 113.195 145.969 113.028 145.293 112.554C144.616 112.081 144.492 111.189 144.598 110.493Z" fill="#1D1273"/>
<defs>
<filter id="filter0_d_441_1700" x="85.3778" y="97.1238" width="173.479" height="95.309" filterUnits="userSpaceOnUse" color-interpolation-filters="sRGB">
<feFlood flood-opacity="0" result="BackgroundImageFix"/>
<feColorMatrix in="SourceAlpha" type="matrix" values="0 0 0 0 0 0 0 0 0 0 0 0 0 0 0 0 0 0 127 0" result="hardAlpha"/>
<feOffset dy="16"/>
<feGaussianBlur stdDeviation="8.5"/>
<feComposite in2="hardAlpha" operator="out"/>
<feColorMatrix type="matrix" values="0 0 0 0 0 0 0 0 0 0 0 0 0 0 0 0 0 0 0.25 0"/>
<feBlend mode="normal" in2="BackgroundImageFix" result="effect1_dropShadow_441_1700"/>
<feBlend mode="normal" in="SourceGraphic" in2="effect1_dropShadow_441_1700" result="shape"/>
</filter>
<linearGradient id="paint0_linear_441_1700" x1="103.316" y1="120.975" x2="104.713" y2="144.885" gradientUnits="userSpaceOnUse">
<stop stop-color="#060606"/>
<stop offset="1" stop-color="#727272"/>
</linearGradient>
<linearGradient id="paint1_linear_441_1700" x1="110.876" y1="158.422" x2="111.873" y2="175.482" gradientUnits="userSpaceOnUse">
<stop stop-color="#060606"/>
<stop offset="1" stop-color="#727272"/>
</linearGradient>
<linearGradient id="paint2_linear_441_1700" x1="213.693" y1="97.6191" x2="220.453" y2="127.789" gradientUnits="userSpaceOnUse">
<stop stop-color="#030303"/>
<stop offset="1" stop-color="#7B7B7B"/>
</linearGradient>
<linearGradient id="paint3_linear_441_1700" x1="165.03" y1="113.763" x2="178.116" y2="105.047" gradientUnits="userSpaceOnUse">
<stop offset="0.742427" stop-color="#0056FF"/>
<stop offset="1" stop-color="#02A4F1"/>
</linearGradient>
<linearGradient id="paint4_linear_441_1700" x1="166.326" y1="96.9293" x2="179.04" y2="109.023" gradientUnits="userSpaceOnUse">
<stop stop-color="#02A4F1"/>
<stop offset="1" stop-color="#0056FF"/>
</linearGradient>
<linearGradient id="paint5_linear_441_1700" x1="149.934" y1="117.517" x2="165.628" y2="107.565" gradientUnits="userSpaceOnUse">
<stop stop-color="#02A4F1"/>
<stop offset="1" stop-color="#0056FF"/>
</linearGradient>
<linearGradient id="paint6_linear_441_1700" x1="155.644" y1="105.466" x2="162.431" y2="115.887" gradientUnits="userSpaceOnUse">
<stop offset="0.804928" stop-color="#0056FF"/>
<stop offset="1" stop-color="#02A4F1"/>
</linearGradient>
<linearGradient id="paint7_linear_441_1700" x1="143.38" y1="119.466" x2="151.999" y2="115.699" gradientUnits="userSpaceOnUse">
<stop stop-color="#5752D0"/>
<stop offset="1" stop-color="#7F7CF9"/>
</linearGradient>
<linearGradient id="paint8_linear_441_1700" x1="169.16" y1="119.727" x2="186.879" y2="109.902" gradientUnits="userSpaceOnUse">
<stop stop-color="#02A4F1"/>
<stop offset="1" stop-color="#0056FF"/>
</linearGradient>
<linearGradient id="paint9_linear_441_1700" x1="179.247" y1="107.96" x2="186.034" y2="118.381" gradientUnits="userSpaceOnUse">
<stop offset="0.804928" stop-color="#0056FF"/>
<stop offset="1" stop-color="#02A4F1"/>
</linearGradient>
<linearGradient id="paint10_linear_441_1700" x1="158.307" y1="121.34" x2="168.09" y2="117.064" gradientUnits="userSpaceOnUse">
<stop offset="0.419504" stop-color="#0056FF"/>
<stop offset="1" stop-color="#02A4F1"/>
</linearGradient>
<linearGradient id="paint11_linear_441_1700" x1="162.718" y1="111.335" x2="168.859" y2="122.15" gradientUnits="userSpaceOnUse">
<stop offset="0.804928" stop-color="#0056FF"/>
<stop offset="1" stop-color="#02A4F1"/>
</linearGradient>
<linearGradient id="paint12_linear_441_1700" x1="146.031" y1="120.544" x2="151.925" y2="112.231" gradientUnits="userSpaceOnUse">
<stop stop-color="#02A4F1"/>
<stop offset="1" stop-color="#0056FF"/>
</linearGradient>
<linearGradient id="paint13_linear_441_1700" x1="155.311" y1="115.546" x2="156.741" y2="117.343" gradientUnits="userSpaceOnUse">
<stop stop-color="#5752D0"/>
<stop offset="1" stop-color="#7F7CF9"/>
</linearGradient>
<linearGradient id="paint14_linear_441_1700" x1="139.813" y1="109.051" x2="151.827" y2="116.879" gradientUnits="userSpaceOnUse">
<stop stop-color="#F0F0FB"/>
<stop offset="1" stop-color="#D2D7F6"/>
</linearGradient>
<linearGradient id="paint15_linear_441_1700" x1="138.438" y1="107.452" x2="148.498" y2="114.672" gradientUnits="userSpaceOnUse">
<stop stop-color="#F0F0FB"/>
<stop offset="1" stop-color="#D2D7F6"/>
</linearGradient>
<linearGradient id="paint16_linear_441_1700" x1="143.864" y1="124.683" x2="156.714" y2="118.323" gradientUnits="userSpaceOnUse">
<stop stop-color="#02A4F1"/>
<stop offset="1" stop-color="#0056FF"/>
</linearGradient>
</defs>
</svg>
